<svg width="1280" height="1061" viewBox="0 0 1280 1061" fill="none" xmlns="http://www.w3.org/2000/svg">
<!-- Fondo -->
<rect width="1280" height="1061" fill="#253060"/>
<rect width="321" height="1061" fill="#4859AA"/>
<rect x="635" width="330" height="1061" fill="#2E3B75"/>
<rect x="319" width="316" height="1061" fill="#3B4A90"/>

<!-- OCTAVOS DE FINAL - Cuadros y textos -->
<!-- Partido 1 -->
<rect width="186" height="44" transform="translate(73 82)" fill="white" stroke="#253060" stroke-width="2"/>
<text x="166" y="100" text-anchor="middle" font-family="Arial" font-size="11" font-weight="bold" fill="#253060">Real Madrid Cadete</text>
<text x="166" y="112" text-anchor="middle" font-family="Arial" font-size="10" fill="#4CAF50">75</text>
<line x1="73" y1="125.5" x2="259" y2="125.5" stroke="#FBDE95"/>
<rect width="186" height="44" transform="translate(73 126)" fill="white" stroke="#253060" stroke-width="2"/>
<text x="166" y="144" text-anchor="middle" font-family="Arial" font-size="11" font-weight="bold" fill="#253060">Barcelona Cadete</text>
<text x="166" y="156" text-anchor="middle" font-family="Arial" font-size="10" fill="#f44336">68</text>

<!-- Partido 2 -->
<rect width="186" height="44" transform="translate(73 180)" fill="white" stroke="#253060" stroke-width="2"/>
<text x="166" y="198" text-anchor="middle" font-family="Arial" font-size="11" font-weight="bold" fill="#253060">Valencia Basket</text>
<text x="166" y="210" text-anchor="middle" font-family="Arial" font-size="10" fill="#f44336">71</text>
<line x1="73" y1="223.5" x2="259" y2="223.5" stroke="#FBDE95"/>
<rect width="186" height="44" transform="translate(73 224)" fill="white" stroke="#253060" stroke-width="2"/>
<text x="166" y="242" text-anchor="middle" font-family="Arial" font-size="11" font-weight="bold" fill="#253060">Unicaja Málaga</text>
<text x="166" y="254" text-anchor="middle" font-family="Arial" font-size="10" fill="#4CAF50">84</text>

<!-- Partido 3 -->
<rect width="186" height="44" transform="translate(73 318)" fill="white" stroke="#253060" stroke-width="2"/>
<text x="166" y="336" text-anchor="middle" font-family="Arial" font-size="11" font-weight="bold" fill="#253060">Baskonia Vitoria</text>
<text x="166" y="348" text-anchor="middle" font-family="Arial" font-size="10" fill="#4CAF50">79</text>
<line x1="73" y1="361.5" x2="259" y2="361.5" stroke="#FBDE95"/>
<rect width="186" height="44" transform="translate(73 362)" fill="white" stroke="#253060" stroke-width="2"/>
<text x="166" y="380" text-anchor="middle" font-family="Arial" font-size="11" font-weight="bold" fill="#253060">Joventut Badalona</text>
<text x="166" y="392" text-anchor="middle" font-family="Arial" font-size="10" fill="#f44336">65</text>

<!-- Partido 4 -->
<rect width="186" height="44" transform="translate(73 416)" fill="white" stroke="#253060" stroke-width="2"/>
<text x="166" y="434" text-anchor="middle" font-family="Arial" font-size="11" font-weight="bold" fill="#253060">Gran Canaria</text>
<text x="166" y="446" text-anchor="middle" font-family="Arial" font-size="10" fill="#f44336">62</text>
<line x1="73" y1="459.5" x2="259" y2="459.5" stroke="#FBDE95"/>
<rect width="186" height="44" transform="translate(73 460)" fill="white" stroke="#253060" stroke-width="2"/>
<text x="166" y="478" text-anchor="middle" font-family="Arial" font-size="11" font-weight="bold" fill="#253060">Manresa</text>
<text x="166" y="490" text-anchor="middle" font-family="Arial" font-size="10" fill="#4CAF50">73</text>

<!-- Partido 5 -->
<rect width="186" height="44" transform="translate(73 554)" fill="white" stroke="#253060" stroke-width="2"/>
<text x="166" y="572" text-anchor="middle" font-family="Arial" font-size="11" font-weight="bold" fill="#253060">Zaragoza</text>
<text x="166" y="584" text-anchor="middle" font-family="Arial" font-size="10" fill="#4CAF50">88</text>
<line x1="73" y1="597.5" x2="259" y2="597.5" stroke="#FBDE95"/>
<rect width="186" height="44" transform="translate(73 598)" fill="white" stroke="#253060" stroke-width="2"/>
<text x="166" y="616" text-anchor="middle" font-family="Arial" font-size="11" font-weight="bold" fill="#253060">Estudiantes</text>
<text x="166" y="628" text-anchor="middle" font-family="Arial" font-size="10" fill="#f44336">76</text>

<!-- Partido 6 -->
<rect width="186" height="44" transform="translate(73 652)" fill="white" stroke="#253060" stroke-width="2"/>
<text x="166" y="670" text-anchor="middle" font-family="Arial" font-size="11" font-weight="bold" fill="#253060">Betis Baloncesto</text>
<text x="166" y="682" text-anchor="middle" font-family="Arial" font-size="10" fill="#f44336">58</text>
<line x1="73" y1="695.5" x2="259" y2="695.5" stroke="#FBDE95"/>
<rect width="186" height="44" transform="translate(73 696)" fill="white" stroke="#253060" stroke-width="2"/>
<text x="166" y="714" text-anchor="middle" font-family="Arial" font-size="11" font-weight="bold" fill="#253060">Fuenlabrada</text>
<text x="166" y="726" text-anchor="middle" font-family="Arial" font-size="10" fill="#4CAF50">67</text>

<!-- Partido 7 -->
<rect width="186" height="44" transform="translate(73 790)" fill="white" stroke="#253060" stroke-width="2"/>
<text x="166" y="808" text-anchor="middle" font-family="Arial" font-size="11" font-weight="bold" fill="#253060">Burgos</text>
<text x="166" y="820" text-anchor="middle" font-family="Arial" font-size="10" fill="#4CAF50">82</text>
<line x1="73" y1="833.5" x2="259" y2="833.5" stroke="#FBDE95"/>
<rect width="186" height="44" transform="translate(73 834)" fill="white" stroke="#253060" stroke-width="2"/>
<text x="166" y="852" text-anchor="middle" font-family="Arial" font-size="11" font-weight="bold" fill="#253060">Andorra</text>
<text x="166" y="864" text-anchor="middle" font-family="Arial" font-size="10" fill="#f44336">69</text>

<!-- Partido 8 -->
<rect width="186" height="44" transform="translate(73 888)" fill="white" stroke="#253060" stroke-width="2"/>
<text x="166" y="906" text-anchor="middle" font-family="Arial" font-size="11" font-weight="bold" fill="#253060">Obradoiro</text>
<text x="166" y="918" text-anchor="middle" font-family="Arial" font-size="10" fill="#f44336">71</text>
<line x1="73" y1="931.5" x2="259" y2="931.5" stroke="#FBDE95"/>
<rect width="186" height="44" transform="translate(73 932)" fill="white" stroke="#253060" stroke-width="2"/>
<text x="166" y="950" text-anchor="middle" font-family="Arial" font-size="11" font-weight="bold" fill="#253060">Tenerife</text>
<text x="166" y="962" text-anchor="middle" font-family="Arial" font-size="10" fill="#4CAF50">85</text>

<!-- CUARTOS DE FINAL -->
<!-- Partido QF1 -->
<rect width="186" height="44" transform="translate(389 198)" fill="white" stroke="#253060" stroke-width="2"/>
<text x="482" y="216" text-anchor="middle" font-family="Arial" font-size="11" font-weight="bold" fill="#253060">Real Madrid Cadete</text>
<text x="482" y="228" text-anchor="middle" font-family="Arial" font-size="10" fill="#4CAF50">91</text>
<line x1="389" y1="241.5" x2="575" y2="241.5" stroke="#FBDE95"/>
<rect width="186" height="44" transform="translate(389 242)" fill="white" stroke="#253060" stroke-width="2"/>
<text x="482" y="260" text-anchor="middle" font-family="Arial" font-size="11" font-weight="bold" fill="#253060">Unicaja Málaga</text>
<text x="482" y="272" text-anchor="middle" font-family="Arial" font-size="10" fill="#f44336">74</text>

<!-- Partido QF2 -->
<rect width="186" height="44" transform="translate(389 296)" fill="white" stroke="#253060" stroke-width="2"/>
<text x="482" y="314" text-anchor="middle" font-family="Arial" font-size="11" font-weight="bold" fill="#253060">Baskonia Vitoria</text>
<text x="482" y="326" text-anchor="middle" font-family="Arial" font-size="10" fill="#f44336">66</text>
<line x1="389" y1="339.5" x2="575" y2="339.5" stroke="#FBDE95"/>
<rect width="186" height="44" transform="translate(389 340)" fill="white" stroke="#253060" stroke-width="2"/>
<text x="482" y="358" text-anchor="middle" font-family="Arial" font-size="11" font-weight="bold" fill="#253060">Manresa</text>
<text x="482" y="370" text-anchor="middle" font-family="Arial" font-size="10" fill="#4CAF50">78</text>

<!-- Partido QF3 -->
<rect width="186" height="44" transform="translate(389 674)" fill="white" stroke="#253060" stroke-width="2"/>
<text x="482" y="692" text-anchor="middle" font-family="Arial" font-size="11" font-weight="bold" fill="#253060">Zaragoza</text>
<text x="482" y="704" text-anchor="middle" font-family="Arial" font-size="10" fill="#4CAF50">95</text>
<line x1="389" y1="717.5" x2="575" y2="717.5" stroke="#FBDE95"/>
<rect width="186" height="44" transform="translate(389 718)" fill="white" stroke="#253060" stroke-width="2"/>
<text x="482" y="736" text-anchor="middle" font-family="Arial" font-size="11" font-weight="bold" fill="#253060">Fuenlabrada</text>
<text x="482" y="748" text-anchor="middle" font-family="Arial" font-size="10" fill="#f44336">81</text>

<!-- Partido QF4 -->
<rect width="186" height="44" transform="translate(389 772)" fill="white" stroke="#253060" stroke-width="2"/>
<text x="482" y="790" text-anchor="middle" font-family="Arial" font-size="11" font-weight="bold" fill="#253060">Burgos</text>
<text x="482" y="802" text-anchor="middle" font-family="Arial" font-size="10" fill="#f44336">72</text>
<line x1="389" y1="815.5" x2="575" y2="815.5" stroke="#FBDE95"/>
<rect width="186" height="44" transform="translate(389 816)" fill="white" stroke="#253060" stroke-width="2"/>
<text x="482" y="834" text-anchor="middle" font-family="Arial" font-size="11" font-weight="bold" fill="#253060">Tenerife</text>
<text x="482" y="846" text-anchor="middle" font-family="Arial" font-size="10" fill="#4CAF50">89</text>

<!-- SEMIFINALES -->
<!-- Semifinal 1 -->
<rect width="186" height="44" transform="translate(705 436)" fill="white" stroke="#253060" stroke-width="2"/>
<text x="798" y="454" text-anchor="middle" font-family="Arial" font-size="11" font-weight="bold" fill="#253060">Real Madrid Cadete</text>
<text x="798" y="466" text-anchor="middle" font-family="Arial" font-size="10" fill="#f44336">77</text>
<line x1="705" y1="479.5" x2="891" y2="479.5" stroke="#FBDE95"/>
<rect width="186" height="44" transform="translate(705 480)" fill="white" stroke="#253060" stroke-width="2"/>
<text x="798" y="498" text-anchor="middle" font-family="Arial" font-size="11" font-weight="bold" fill="#253060">Manresa</text>
<text x="798" y="510" text-anchor="middle" font-family="Arial" font-size="10" fill="#4CAF50">83</text>

<!-- Semifinal 2 -->
<rect width="186" height="44" transform="translate(705 534)" fill="white" stroke="#253060" stroke-width="2"/>
<text x="798" y="552" text-anchor="middle" font-family="Arial" font-size="11" font-weight="bold" fill="#253060">Zaragoza</text>
<text x="798" y="564" text-anchor="middle" font-family="Arial" font-size="10" fill="#4CAF50">92</text>
<line x1="705" y1="577.5" x2="891" y2="577.5" stroke="#FBDE95"/>
<rect width="186" height="44" transform="translate(705 578)" fill="white" stroke="#253060" stroke-width="2"/>
<text x="798" y="596" text-anchor="middle" font-family="Arial" font-size="11" font-weight="bold" fill="#253060">Tenerife</text>
<text x="798" y="608" text-anchor="middle" font-family="Arial" font-size="10" fill="#f44336">87</text>

<!-- FINAL -->
<rect width="186" height="44" transform="translate(1021 485)" fill="white" stroke="#253060" stroke-width="2"/>
<text x="1114" y="503" text-anchor="middle" font-family="Arial" font-size="11" font-weight="bold" fill="#253060">Manresa</text>
<text x="1114" y="515" text-anchor="middle" font-family="Arial" font-size="10" fill="#f44336">85</text>
<line x1="1021" y1="528.5" x2="1207" y2="528.5" stroke="#FBDE95"/>
<rect width="186" height="44" transform="translate(1021 529)" fill="white" stroke="#253060" stroke-width="2"/>
<text x="1114" y="547" text-anchor="middle" font-family="Arial" font-size="11" font-weight="bold" fill="#253060">Zaragoza</text>
<text x="1114" y="559" text-anchor="middle" font-family="Arial" font-size="10" fill="#4CAF50">96</text>

<!-- CAMPEÓN -->
<rect x="1021" y="600" width="186" height="60" fill="#FFD700" stroke="#253060" stroke-width="3" rx="10"/>
<text x="1114" y="620" text-anchor="middle" font-family="Arial" font-size="12" font-weight="bold" fill="#253060">🏆 CAMPEÓN</text>
<text x="1114" y="635" text-anchor="middle" font-family="Arial" font-size="14" font-weight="bold" fill="#253060">ZARAGOZA</text>
<text x="1114" y="650" text-anchor="middle" font-family="Arial" font-size="11" fill="#253060">Temporada 2024</text>

<!-- Líneas de conexión del bracket -->
<line x1="269" y1="85" x2="269" y2="270" stroke="white" stroke-width="2"/>
<line x1="320" y1="175" x2="320" y2="412" stroke="white" stroke-width="2"/>
<line x1="320" y1="646" x2="320" y2="883" stroke="white" stroke-width="2"/>
<path d="M635 290L635 768" stroke="white" stroke-width="2"/>
<line x1="586" y1="200" x2="586" y2="385" stroke="white" stroke-width="2"/>
<line x1="586" y1="676" x2="586" y2="861" stroke="white" stroke-width="2"/>
<line x1="901" y1="438" x2="901" y2="623" stroke="white" stroke-width="2"/>
<line x1="269" y1="321" x2="269" y2="506" stroke="white" stroke-width="2"/>
<line x1="269" y1="557" x2="269" y2="742" stroke="white" stroke-width="2"/>
<line x1="269" y1="793" x2="269" y2="978" stroke="white" stroke-width="2"/>
<line x1="269" y1="176" x2="319" y2="176" stroke="white" stroke-width="2"/>
<line x1="585" y1="291" x2="635" y2="291" stroke="white" stroke-width="2"/>
<line x1="585" y1="767" x2="635" y2="767" stroke="white" stroke-width="2"/>
<line x1="269" y1="411" x2="319" y2="411" stroke="white" stroke-width="2"/>
<line x1="269" y1="647" x2="319" y2="647" stroke="white" stroke-width="2"/>
<line x1="269" y1="883" x2="319" y2="883" stroke="white" stroke-width="2"/>
<line x1="901" y1="529" x2="1021" y2="529" stroke="white" stroke-width="2"/>
<path d="M635 529H705" stroke="white" stroke-width="2"/>
<line x1="319" y1="767" x2="388" y2="767" stroke="white" stroke-width="2"/>
<line x1="319" y1="291" x2="388" y2="291" stroke="white" stroke-width="2"/>

<!-- Etiquetas de rondas -->
<rect x="113" y="20" width="95" height="39" rx="12" fill="white" fill-opacity="0.9"/>
<text x="160" y="44" text-anchor="middle" font-family="Arial" font-size="14" font-weight="bold" fill="#3B4A90">1/8 FINAL</text>

<rect x="429" y="20" width="96" height="39" rx="12" fill="white" fill-opacity="0.9"/>
<text x="477" y="44" text-anchor="middle" font-family="Arial" font-size="14" font-weight="bold" fill="#3B4A90">1/4 FINAL</text>

<rect x="748" y="20" width="95" height="39" rx="12" fill="white" fill-opacity="0.9"/>
<text x="795" y="44" text-anchor="middle" font-family="Arial" font-size="14" font-weight="bold" fill="#3B4A90">1/2 FINAL</text>

<rect x="1097" y="20" width="67" height="39" rx="12" fill="white" fill-opacity="0.9"/>
<text x="1130" y="44" text-anchor="middle" font-family="Arial" font-size="14" font-weight="bold" fill="#3B4A90">FINAL</text>
</svg> 