<?xml version="1.0" encoding="UTF-8"?>
<svg version="1.1" xmlns="http://www.w3.org/2000/svg" width="684" height="652">
<path d="M0 0 C0.70857812 -0.00495952 1.41715624 -0.00991903 2.14720643 -0.01502883 C4.52173474 -0.02798303 6.89570057 -0.01960107 9.27024269 -0.01129913 C10.98976529 -0.01618813 12.7092846 -0.02237797 14.42879832 -0.02975702 C19.1543029 -0.04617859 23.87964089 -0.0438341 28.60516405 -0.03838205 C33.70139464 -0.0357146 38.79758053 -0.0502383 43.89379311 -0.06247711 C53.8779967 -0.0835452 63.86214224 -0.08807118 73.84636544 -0.08628923 C81.96067351 -0.08498231 90.07496345 -0.08878213 98.18926811 -0.09621429 C100.52535426 -0.09831346 102.86144042 -0.10041106 105.19752657 -0.10250711 C106.3602116 -0.10355064 107.52289663 -0.10459417 108.72081454 -0.10566932 C130.71682901 -0.12457719 152.71281013 -0.12351979 174.70882936 -0.11669999 C194.83662584 -0.11112391 214.96429506 -0.13195183 235.0920618 -0.16506046 C255.75344809 -0.19878339 276.4147734 -0.21396755 297.07618773 -0.20934343 C308.67832795 -0.20709736 320.28035054 -0.21236212 331.88246727 -0.23723602 C341.75953211 -0.25823104 351.63641482 -0.26185894 361.51348709 -0.24293643 C366.55350504 -0.23376762 371.59318325 -0.23267073 376.6331749 -0.25329208 C381.24728949 -0.27196227 385.86078514 -0.26754308 390.47487588 -0.24474627 C392.14373854 -0.2405505 393.81264828 -0.24479329 395.48146121 -0.25834221 C410.5282227 -0.3721823 410.5282227 -0.3721823 416.36881793 3.98579073 C419.97301482 7.57591114 421.60098028 10.9806864 422.22571754 16.11528778 C422.20477028 17.41925507 422.18382301 18.72322235 422.16224098 20.0667038 C422.1537513 21.117257 422.1537513 21.117257 422.1450901 22.18903351 C422.12290819 24.40028949 422.07275404 26.60985378 422.02161598 28.82061005 C422.00152713 30.33035207 421.98328056 31.8401198 421.96692848 33.34990692 C421.92310545 37.02818003 421.85420939 40.70547961 421.77161598 44.38311005 C422.74943535 44.37866882 423.72725471 44.3742276 424.73470497 44.36965179 C433.9877184 44.32895989 443.24071347 44.299056 452.49379635 44.2794857 C457.24993392 44.26908593 462.00599877 44.2549969 466.7620945 44.23223114 C471.35920544 44.2103662 475.9562468 44.19851285 480.55340576 44.19335556 C482.29991881 44.18968416 484.04642842 44.18251542 485.79291153 44.17164993 C502.49738579 44.07193809 516.46943182 45.14126723 529.46692848 56.9260788 C531.22320581 58.88743042 532.10150593 60.85158317 532.77161598 63.38311005 C533.43161598 63.38311005 534.09161598 63.38311005 534.77161598 63.38311005 C535.44516098 64.81740006 536.11021299 66.25568061 536.77161598 67.69561005 C537.14286598 68.49611786 537.51411598 69.29662567 537.89661598 70.1213913 C538.77161598 72.38311005 538.77161598 72.38311005 538.77161598 75.38311005 C539.43161598 75.38311005 540.09161598 75.38311005 540.77161598 75.38311005 C541.81154514 79.64506401 541.91694547 83.7798407 541.90442848 88.14092255 C541.90538521 88.88462097 541.90634193 89.6283194 541.90732765 90.39455414 C541.90800631 91.96626114 541.90617399 93.53797098 541.90198708 95.10967255 C541.89667998 97.47953078 541.90191906 99.84919552 541.90833473 102.21904755 C541.9169683 119.49844925 541.9169683 119.49844925 540.77161598 126.38311005 C540.44161598 126.71311005 540.11161598 127.04311005 539.77161598 127.38311005 C539.37760469 129.44292927 539.03790895 131.51317835 538.72083473 133.58623505 C538.51651833 134.87787567 538.31220192 136.1695163 538.10169411 137.50029755 C537.78210018 139.54628022 537.46526502 141.59257672 537.15467262 143.63994598 C535.91064902 151.79175902 534.31256114 159.61990147 531.723032 167.47661591 C530.22237778 172.06098555 529.0048828 176.72098774 527.77161598 181.38311005 C527.11161598 181.38311005 526.45161598 181.38311005 525.77161598 181.38311005 C525.67364723 181.92838348 525.57567848 182.47365692 525.47474098 183.0354538 C524.48723763 188.01553537 523.05852986 192.36791327 520.89270973 196.95342255 C519.66113446 199.62255084 518.59887923 202.33573971 517.52161598 205.07061005 C515.04974931 211.05191706 511.975054 216.53864315 508.69739723 222.10186005 C506.66720409 225.56101266 504.75408077 229.06964765 502.87708473 232.6135788 C501.70068013 234.49665754 500.36196608 235.8435158 498.77161598 237.38311005 C497.86627248 238.75789092 496.96245574 240.13371549 496.06849098 241.51592255 C493.7963532 244.78725345 491.23207255 247.82979694 488.72474098 250.92217255 C487.09717756 252.97290246 485.56995271 255.04208719 484.08411598 257.19561005 C481.83733386 260.29252595 479.49678734 262.70354825 476.77161598 265.38311005 C475.64224095 266.53241423 474.51475845 267.68358007 473.38880348 268.83623505 C466.17846386 276.17251527 458.97642728 283.15238869 450.77161598 289.38311005 C449.90407692 290.04439911 449.03653786 290.70568817 448.14270973 291.3870163 C443.03296362 295.18771537 437.78522863 298.7697278 432.45911598 302.25811005 C431.88443581 302.63967255 431.30975563 303.02123505 430.7176609 303.41436005 C427.18385869 305.69271231 423.80959905 307.222419 419.77161598 308.38311005 C419.77161598 309.04311005 419.77161598 309.70311005 419.77161598 310.38311005 C417.25204855 311.65650487 414.7310295 312.92687646 412.20911598 314.19561005 C411.50464333 314.55203583 410.80017067 314.90846161 410.07435036 315.27568817 C397.915538 321.38311005 397.915538 321.38311005 393.77161598 321.38311005 C393.77161598 322.04311005 393.77161598 322.70311005 393.77161598 323.38311005 C392.63724098 323.78143036 391.50286598 324.17975067 390.33411598 324.5901413 C388.81326755 325.12525463 387.29243507 325.66041331 385.77161598 326.19561005 C384.65593239 326.58716278 384.65593239 326.58716278 383.51770973 326.98662567 C379.84469415 328.28016594 376.18663212 329.59850051 372.54895973 330.9885788 C369.51201792 332.13504124 366.48202961 333.0781641 363.33411598 333.88311005 C360.00079418 334.75862001 356.76174548 335.7115378 353.52161598 336.88311005 C346.47122621 339.30588035 338.23492015 341.38311005 330.77161598 341.38311005 C330.43130348 342.18748505 330.43130348 342.18748505 330.08411598 343.00811005 C327.20267977 348.22213748 323.42389389 351.77759467 318.77161598 355.38311005 C317.98786598 356.16686005 317.20411598 356.95061005 316.39661598 357.75811005 C308.67056151 365.48416452 299.90210652 372.0982912 290.75599098 378.0432663 C288.62245989 379.43066937 288.62245989 379.43066937 286.27161598 381.50811005 C282.56956304 384.28464975 277.51796011 387.38311005 272.77161598 387.38311005 C272.77161598 388.04311005 272.77161598 388.70311005 272.77161598 389.38311005 C250.66481987 398.38311005 250.66481987 398.38311005 245.77161598 398.38311005 C245.84174067 403.19924276 245.93025773 408.0146069 246.03406715 412.83013153 C246.06681961 414.45992568 246.09499623 416.0898198 246.11805153 417.71977997 C246.33443747 432.63199402 247.17754274 447.73927558 253.77161598 461.38311005 C254.22536598 462.37311005 254.67911598 463.36311005 255.14661598 464.38311005 C263.07501209 479.02014901 273.72263108 492.72285168 289.45520973 499.54717255 C293.77835427 500.63686975 297.77421807 500.56003665 302.20911598 500.44561005 C307.86792952 500.32558808 313.18575425 500.41329018 318.77161598 501.38311005 C318.77161598 502.04311005 318.77161598 502.70311005 318.77161598 503.38311005 C319.69974098 503.63061005 320.62786598 503.87811005 321.58411598 504.13311005 C324.94947208 505.45285753 326.03076819 506.28826953 327.77161598 509.38311005 C327.77161598 510.04311005 327.77161598 510.70311005 327.77161598 511.38311005 C328.43161598 511.38311005 329.09161598 511.38311005 329.77161598 511.38311005 C330.96137393 514.9523839 330.89639753 518.18257977 330.86927223 521.8948288 C330.86714981 522.98716576 330.86714981 522.98716576 330.86498451 524.10157013 C330.85939257 526.42462544 330.8468416 528.74758393 330.83411598 531.07061005 C330.82909994 532.64678053 330.82453721 534.22295252 330.82044411 535.79912567 C330.80942578 539.66049103 330.79216672 543.52178413 330.77161598 547.38311005 C327.89407435 548.20434573 325.34090691 548.50898298 322.35222721 548.5117445 C321.46829743 548.51496895 320.58436765 548.51819339 319.67365211 548.52151555 C318.70683087 548.51996695 317.74000962 548.51841834 316.74389076 548.51682281 C315.19835647 548.52022115 315.19835647 548.52022115 313.62159926 548.52368814 C310.15849132 548.53003381 306.69542246 548.52919841 303.23230934 548.52837372 C300.75385932 548.53136479 298.27540977 548.5347672 295.79696083 548.53855133 C289.7579049 548.54647975 283.71886443 548.54960612 277.67980473 548.55016371 C272.77288736 548.55063875 267.86597321 548.55269289 262.95905685 548.55586433 C249.05282765 548.56466962 235.14660616 548.56928373 221.24037414 548.56853386 C220.49070104 548.5684939 219.74102794 548.56845395 218.96863747 548.56841278 C218.21805148 548.5683719 217.4674655 548.56833102 216.69413448 548.5682889 C204.51993289 548.56788213 192.34576218 548.57745975 180.17156952 548.59155115 C167.67687908 548.6058997 155.18220372 548.61282222 142.68750483 548.61195737 C135.67029584 548.61162495 128.65311925 548.61439207 121.63591766 548.62513542 C115.04090503 548.63516766 108.44594934 548.63492073 101.85092926 548.62761879 C99.42528623 548.62656851 96.99963901 548.62896191 94.57400322 548.63497925 C91.27337256 548.64263945 87.97298263 548.63809423 84.67235756 548.63034821 C83.70330559 548.63549177 82.73425362 548.64063533 81.73583645 548.64593476 C80.85451441 548.64133596 79.97319238 548.63673717 79.06516361 548.63199902 C77.92185051 548.63232507 77.92185051 548.63232507 76.75544018 548.63265771 C74.77161598 548.38311005 74.77161598 548.38311005 71.77161598 546.38311005 C71.41517067 543.26616669 71.41517067 543.26616669 71.44349098 539.2932663 C71.44536415 538.59293777 71.44723732 537.89260925 71.44916725 537.17105865 C71.45589286 535.68904109 71.46981762 534.20704143 71.49036598 532.72515106 C71.52144648 530.45797449 71.53132932 528.19149391 71.53724098 525.92412567 C71.60765433 514.874995 71.60765433 514.874995 72.77161598 511.38311005 C73.43161598 511.38311005 74.09161598 511.38311005 74.77161598 511.38311005 C75.11192848 510.23842255 75.11192848 510.23842255 75.45911598 509.07061005 C77.05257777 505.80780734 78.53499934 504.92050295 81.77161598 503.38311005 C82.43161598 503.38311005 83.09161598 503.38311005 83.77161598 503.38311005 C83.77161598 502.72311005 83.77161598 502.06311005 83.77161598 501.38311005 C88.02071823 500.63575022 92.10759196 500.30813323 96.42395973 500.24248505 C97.96019997 500.21348114 97.96019997 500.21348114 99.52747536 500.1838913 C101.6444717 500.15010253 103.76177349 500.13181287 105.87903786 500.1292038 C112.94125778 499.96052727 117.19210899 498.68630274 122.77161598 494.38311005 C123.82349098 493.72311005 124.87536598 493.06311005 125.95911598 492.38311005 C140.73550207 481.87545772 151.43200393 462.8454484 154.86927223 445.27373505 C156.30557651 436.12909879 156.2394681 426.86882192 156.39661598 417.63311005 C156.43488142 415.76069775 156.47393782 413.88830145 156.51380348 412.01592255 C156.60885602 407.47178455 156.69321936 402.92756465 156.77161598 398.38311005 C156.16053993 398.25287445 155.54946388 398.12263885 154.91987038 397.98845673 C154.114589 397.81382904 153.30930763 397.63920135 152.47962379 397.45928192 C151.28457222 397.20205353 151.28457222 397.20205353 150.06537819 396.9396286 C147.07161269 396.21327343 144.33999873 395.11897842 141.52161598 393.88311005 C140.54708473 393.46029755 139.57255348 393.03748505 138.56849098 392.60186005 C137.64552223 392.19967255 136.72255348 391.79748505 135.77161598 391.38311005 C134.10746972 390.71017659 132.44162416 390.04136145 130.77161598 389.38311005 C130.77161598 388.72311005 130.77161598 388.06311005 130.77161598 387.38311005 C129.93114723 387.13818817 129.09067848 386.8932663 128.22474098 386.64092255 C124.38009397 385.24049682 121.0001549 383.37711702 117.52161598 381.25811005 C116.86483864 380.86140106 116.20806129 380.46469208 115.53138161 380.05596161 C110.70383169 377.08425238 106.26536018 373.80282949 101.91614723 370.1604538 C99.98562248 368.56047427 98.023888 367.11486448 95.95911598 365.69561005 C92.8819179 363.46313301 90.38503864 361.13408126 87.77161598 358.38311005 C86.53411598 357.14561005 86.53411598 357.14561005 85.27161598 355.88311005 C77.77161598 348.38311005 77.77161598 348.38311005 75.38099098 345.42217255 C70.99233008 341.04157039 65.34690902 340.38419319 59.45911598 339.19561005 C57.27471601 338.72669391 55.09110274 338.25409637 52.90833473 337.7776413 C51.34103615 337.43769135 51.34103615 337.43769135 49.74207497 337.09087372 C45.65077769 336.11605077 41.73318728 334.78103727 37.77161598 333.38311005 C36.12876924 332.89380173 34.48352637 332.41231492 32.83411598 331.94561005 C25.35856365 329.72377406 18.26345324 326.64463634 11.16614723 323.43779755 C8.49295659 322.26037263 5.79119496 321.16778378 3.08411598 320.07061005 C-3.86967343 317.19936797 -10.5400134 313.81634171 -17.22838402 310.38311005 C-17.22838402 309.72311005 -17.22838402 309.06311005 -17.22838402 308.38311005 C-18.08045433 308.13818817 -18.93252464 307.8932663 -19.81041527 307.64092255 C-23.52287349 306.27473792 -26.6425041 304.43179587 -29.91588402 302.25811005 C-30.82999046 301.65869598 -30.82999046 301.65869598 -31.76256371 301.04717255 C-40.2987803 295.40693325 -48.34770373 289.50202936 -55.87291527 282.5510788 C-58.07516949 280.52412839 -60.3255255 278.57413181 -62.60338402 276.63311005 C-65.51985392 274.10238566 -67.84328919 271.42616206 -70.22838402 268.38311005 C-70.99666527 267.78756317 -71.76494652 267.1920163 -72.55650902 266.57842255 C-75.38853322 264.25152547 -77.50799056 261.80815993 -79.79088402 258.94561005 C-80.53467308 258.01877411 -81.27846214 257.09193817 -82.04479027 256.1370163 C-82.76537621 255.22822723 -83.48596214 254.31943817 -84.22838402 253.38311005 C-84.95412621 252.5013913 -85.67986839 251.61967255 -86.42760277 250.71123505 C-88.26070958 248.34131821 -89.26109034 246.20438328 -90.22838402 243.38311005 C-90.88838402 243.38311005 -91.54838402 243.38311005 -92.22838402 243.38311005 C-93.51744652 241.70342255 -93.51744652 241.70342255 -94.85338402 239.50811005 C-95.29939964 238.78881317 -95.74541527 238.0695163 -96.20494652 237.32842255 C-97.22838402 235.38311005 -97.22838402 235.38311005 -97.22838402 233.38311005 C-97.88838402 233.38311005 -98.54838402 233.38311005 -99.22838402 233.38311005 C-100.66056235 230.75744976 -102.09222347 228.13152581 -103.52135277 225.5042038 C-104.57681625 223.57442045 -105.64031845 221.64898017 -106.71666527 219.7307663 C-112.42258074 209.50318197 -117.50912674 198.98296267 -121.33775902 187.9026413 C-122.1955518 185.47599066 -123.16235929 183.12754344 -124.16588402 180.75811005 C-131.05039476 163.58733031 -134.55512901 145.13382078 -136.83385277 126.8401413 C-136.97247947 124.44366201 -136.97247947 124.44366201 -138.22838402 123.38311005 C-139.50060226 115.21919748 -139.50687425 106.84197831 -139.57848167 98.59551239 C-139.59504255 97.20732103 -139.62233552 95.819215 -139.66051292 94.43144989 C-140.04119003 80.41260171 -136.89517203 69.39552752 -127.55650902 58.75811005 C-124.35726438 55.49445108 -121.11179854 52.78786974 -117.22838402 50.38311005 C-116.61607933 49.99510223 -116.00377464 49.60709442 -115.37291527 49.2073288 C-104.54756988 43.06924636 -91.2464954 44.10965784 -79.21275902 44.18779755 C-77.50355255 44.19153627 -75.7943439 44.19437917 -74.08513451 44.19637299 C-69.62673901 44.20394184 -65.16847767 44.22353082 -60.71013451 44.24578094 C-56.14462154 44.26638629 -51.57908651 44.27540585 -47.01354027 44.2854538 C-38.08509651 44.30678434 -29.1567515 44.34083685 -20.22838402 44.38311005 C-20.23007591 42.94644989 -20.23007591 42.94644989 -20.23180199 41.4807663 C-20.22810412 37.89440342 -20.18507137 34.30936534 -20.13072777 30.72344208 C-20.11266697 29.17763101 -20.10498115 27.63165984 -20.10826683 26.08574677 C-20.12820053 10.64709955 -20.12820053 10.64709955 -15.0960598 4.82842255 C-10.23401878 1.06590191 -6.0902224 0.00759363 0 0 Z M-96.22838402 89.38311005 C-96.43496657 91.9076703 -96.51033433 94.29625284 -96.47838402 96.82061005 C-96.47379173 97.56182098 -96.46919945 98.30303192 -96.464468 99.0667038 C-97.01991003 113.60125259 -97.01991003 113.60125259 -93.22838402 126.38311005 C-92.92005749 127.89717333 -92.66427717 129.42201119 -92.43150902 130.9495163 C-92.27996361 131.90261688 -92.1284182 132.85571747 -91.9722805 133.83769989 C-91.80929466 134.86331024 -91.64630882 135.88892059 -91.47838402 136.94561005 C-89.84466023 146.7967434 -87.52249928 155.9619404 -84.22838402 165.38311005 C-83.62229471 167.21580866 -83.01778024 169.04903006 -82.41588402 170.88311005 C-82.02400902 172.03811005 -81.63213402 173.19311005 -81.22838402 174.38311005 C-80.56838402 174.38311005 -79.90838402 174.38311005 -79.22838402 174.38311005 C-79.11881371 174.95158661 -79.00924339 175.52006317 -78.89635277 176.1057663 C-77.84900236 181.20627763 -76.43566649 185.66755205 -74.22838402 190.38311005 C-73.56838402 190.38311005 -72.90838402 190.38311005 -72.22838402 190.38311005 C-72.14588402 191.04311005 -72.06338402 191.70311005 -71.97838402 192.38311005 C-70.98078611 196.37350168 -69.15671719 199.76860648 -67.22838402 203.38311005 C-66.56838402 203.38311005 -65.90838402 203.38311005 -65.22838402 203.38311005 C-64.93963402 204.29061005 -64.65088402 205.19811005 -64.35338402 206.13311005 C-63.46306626 208.70513912 -62.51343989 210.99657771 -61.22838402 213.38311005 C-60.56838402 213.38311005 -59.90838402 213.38311005 -59.22838402 213.38311005 C-58.99119652 214.07791473 -58.75400902 214.77271942 -58.50963402 215.4885788 C-56.99733132 218.9050919 -54.97600035 221.74067675 -52.72838402 224.69561005 C-52.32490746 225.2453952 -51.92143089 225.79518036 -51.50572777 226.36162567 C-50.4656971 227.74318456 -49.35204948 229.06867303 -48.22838402 230.38311005 C-47.56838402 230.38311005 -46.90838402 230.38311005 -46.22838402 230.38311005 C-45.97314964 230.95416473 -45.71791527 231.52521942 -45.45494652 232.1135788 C-41.49342417 239.44365677 -34.53587663 245.10541214 -28.22838402 250.38311005 C-27.69986839 250.84975067 -27.17135277 251.3163913 -26.62682152 251.79717255 C-18.14831567 259.27329346 -9.30678034 266.22227607 0.77161598 271.38311005 C3.64507085 273.0023407 6.5178243 274.62277486 9.38880348 276.2463913 C11.78288545 277.59839267 11.78288545 277.59839267 14.77161598 277.38311005 C14.77161598 278.04311005 14.77161598 278.70311005 14.77161598 279.38311005 C17.18701905 280.36549413 19.6038342 281.34411223 22.02161598 282.32061005 C22.70353004 282.59840302 23.38544411 282.87619598 24.08802223 283.16240692 C27.29085236 284.45286761 30.40999132 285.60111049 33.77161598 286.38311005 C31.05729819 279.66084214 28.22791295 273.07259379 24.88489723 266.6370163 C23.71205039 264.26251585 22.7254969 261.85274695 21.77161598 259.38311005 C21.11161598 259.38311005 20.45161598 259.38311005 19.77161598 259.38311005 C19.54474098 258.12498505 19.31786598 256.86686005 19.08411598 255.57061005 C18.25972613 251.8228519 17.04817463 248.59376063 15.39661598 245.13311005 C12.94742564 239.99701382 11.26843773 234.81726585 9.67005348 229.3635788 C8.96166329 227.01357133 8.18825422 224.779993 7.27161598 222.50811005 C5.1132284 216.94297017 3.77399976 211.11525881 2.28333473 205.34453583 C1.4914189 202.30911035 0.65811081 199.28496202 -0.16588402 196.25811005 C-4.56946768 179.62810585 -8.10679726 163.06070509 -10.77501488 146.06060028 C-11.19801889 143.56243924 -11.70624739 141.10084218 -12.24400902 138.62529755 C-13.48945087 132.53787661 -14.0388849 126.38999849 -14.60606956 120.20806122 C-14.78903363 118.21575898 -14.98034644 116.22422922 -15.17174339 114.23271942 C-16.01513186 105.29103541 -16.64742605 96.34495926 -17.22838402 87.38311005 C-27.23337597 87.33683485 -37.2383426 87.30126542 -47.24341965 87.2794857 C-51.88883676 87.26903423 -56.53418083 87.25485025 -61.17955589 87.23223114 C-65.65991627 87.21055124 -70.14020624 87.1985517 -74.62061501 87.19335556 C-76.33270057 87.18965105 -78.04478214 87.18241739 -79.75683784 87.17164993 C-82.14896888 87.15719937 -84.54080643 87.15512938 -86.93297386 87.15605927 C-88.00219833 87.14527344 -88.00219833 87.14527344 -89.0930233 87.13426971 C-93.10764526 87.03921977 -93.10764526 87.03921977 -96.22838402 89.38311005 Z M419.77161598 87.38311005 C419.62173405 89.39970337 419.47185577 91.41629697 419.32199478 93.43289185 C419.19503472 95.14085876 419.0680085 96.84882075 418.94091797 98.55677795 C418.68013182 102.06234028 418.41969055 105.56791637 418.16303444 109.07378387 C416.03658127 138.11086859 416.03658127 138.11086859 412.77161598 149.38311005 C412.32838862 151.73320735 411.92320604 154.0907427 411.55286598 156.45342255 C411.34069183 157.77504764 411.12845026 159.0966619 410.91614723 160.4182663 C410.59189301 162.46958021 410.26957303 164.5211806 409.94886208 166.57305145 C409.63426924 168.57565684 409.31262613 170.57703889 408.99036598 172.57842255 C408.80409645 173.76452118 408.61782692 174.95061981 408.42591286 176.17266083 C407.82167087 179.1375049 406.94265071 181.6070469 405.77161598 184.38311005 C405.36655069 185.86905581 404.99538411 187.36465092 404.65833473 188.86748505 C404.46457253 189.71254608 404.27081032 190.55760712 404.07117653 191.42827606 C403.86919655 192.32087128 403.66721657 193.21346649 403.45911598 194.13311005 C401.67492989 201.86593322 399.67969033 209.48182075 397.2957859 217.05205536 C396.26792042 220.37533529 395.77161598 222.85619433 395.77161598 226.38311005 C395.11161598 226.38311005 394.45161598 226.38311005 393.77161598 226.38311005 C393.53040016 227.17576263 393.53040016 227.17576263 393.28431129 227.98442841 C392.53591871 230.43165079 391.77881392 232.87609845 391.02161598 235.32061005 C390.76895973 236.15141083 390.51630348 236.98221161 390.25599098 237.83818817 C388.47369764 243.56380553 386.2921302 248.94722452 383.77161598 254.38311005 C383.05320536 255.99277824 382.33711283 257.60348275 381.62317848 259.2151413 C377.5334572 268.37684322 373.38981175 277.47270879 368.77161598 286.38311005 C372.85434059 285.43336426 376.64835828 283.89846834 380.52161598 282.32061005 C381.21899879 282.03894989 381.91638161 281.75728973 382.63489723 281.46709442 C384.34808643 280.77477824 386.05998107 280.07926007 387.77161598 279.38311005 C387.77161598 278.72311005 387.77161598 278.06311005 387.77161598 277.38311005 C388.43161598 277.30061005 389.09161598 277.21811005 389.77161598 277.13311005 C393.76200761 276.13551214 397.15711241 274.31144322 400.77161598 272.38311005 C400.77161598 271.72311005 400.77161598 271.06311005 400.77161598 270.38311005 C401.63786598 270.13561005 402.50411598 269.88811005 403.39661598 269.63311005 C407.00407427 268.29701438 409.60554568 266.56099439 412.77161598 264.38311005 C413.80157692 263.69475067 414.83153786 263.0063913 415.89270973 262.29717255 C428.32924469 253.79397493 448.1542869 239.98353752 453.87708473 225.6057663 C454.17228004 224.87228973 454.46747536 224.13881317 454.77161598 223.38311005 C455.76161598 223.05311005 456.75161598 222.72311005 457.77161598 222.38311005 C459.24525176 220.63792019 459.24525176 220.63792019 460.58411598 218.44561005 C461.11005348 217.62318817 461.63599098 216.8007663 462.17786598 215.95342255 C462.70380348 215.10521942 463.22974098 214.2570163 463.77161598 213.38311005 C464.23567848 212.63803192 464.69974098 211.8929538 465.17786598 211.12529755 C466.74156697 208.56256537 468.26020745 205.97706062 469.77161598 203.38311005 C470.12691383 202.78015106 470.48221169 202.17719208 470.84827614 201.55596161 C475.18346967 194.17574563 479.32491873 187.01761752 481.92005348 178.81279755 C482.77161598 176.38311005 482.77161598 176.38311005 484.25208473 173.44561005 C490.39557176 161.06387784 493.27300707 145.57306606 495.33802223 131.97686005 C495.71581595 129.71690482 496.21569193 127.58596362 496.83411598 125.38311005 C499.06910928 116.72471082 498.88161917 107.64335676 498.95911598 98.75811005 C498.97216774 97.86833466 498.9852195 96.97855927 498.99866676 96.06182098 C498.99979469 95.22683075 499.00092262 94.39184052 499.00208473 93.53154755 C499.00619362 92.78050751 499.01030251 92.02946747 499.0145359 91.25566864 C498.93350296 89.13815508 498.93350296 89.13815508 496.77161598 87.38311005 C494.30212526 87.19537739 491.94581615 87.13114701 489.47620583 87.15605927 C488.34923035 87.15562119 488.34923035 87.15562119 487.19948769 87.15517426 C484.71039307 87.15657017 482.22159596 87.17214347 479.73255348 87.18779755 C478.00905458 87.19152675 476.28555355 87.19437416 474.56205177 87.19637299 C470.02131251 87.20401675 465.48070078 87.22367157 460.94001198 87.24578094 C456.3083767 87.26622341 451.67672085 87.27537127 447.04505348 87.2854538 C437.95385155 87.3069168 428.86274436 87.34106166 419.77161598 87.38311005 Z " fill="#FDFDFD" transform="translate(140.22838401794434,0.6168899536132813)"/>
<path d="M0 0 C1.2278115 -0.00445784 2.45562299 -0.00891569 3.7206409 -0.01350862 C5.09043933 -0.01341932 6.46023776 -0.01322946 7.83003616 -0.01294994 C9.27956721 -0.01624859 10.72909734 -0.01997415 12.1786263 -0.02409142 C16.17168933 -0.0341194 20.16473733 -0.03782949 24.15781116 -0.04048073 C28.46059751 -0.04438138 32.76337193 -0.05395984 37.06615067 -0.0626936 C47.461758 -0.08246403 57.85736631 -0.09252462 68.25298774 -0.10142139 C73.14640038 -0.10580305 78.03981194 -0.11117014 82.93322372 -0.11641026 C99.19618251 -0.13342257 115.45914062 -0.14791753 131.72210693 -0.155159 C135.94324367 -0.15706894 140.1643804 -0.15898927 144.38551712 -0.16094494 C145.43468084 -0.16142868 146.48384456 -0.16191242 147.56480113 -0.16241082 C164.56687969 -0.17071408 181.56888796 -0.19605597 198.57093582 -0.22852562 C216.01958749 -0.26157701 233.46820342 -0.27960599 250.91688657 -0.28280324 C260.71654064 -0.28497004 270.51609219 -0.2937436 280.31571579 -0.31926441 C288.66014191 -0.34094513 297.00444061 -0.34903478 305.34889171 -0.33929763 C309.60698967 -0.33474538 313.86482458 -0.3366927 318.12288666 -0.35605907 C322.02150801 -0.37363768 325.91967337 -0.37273653 329.8182992 -0.35716178 C331.2281553 -0.35477762 332.63804253 -0.35915115 334.04785094 -0.37099043 C347.26628166 -0.47511437 347.26628166 -0.47511437 353.15309525 4.13422108 C355.42042788 7.87096102 355.41043382 11.37204791 355.42775345 15.68109608 C355.43728546 16.98594959 355.44681747 18.29080311 355.45663834 19.63519764 C355.45637692 21.05153906 355.45543992 22.46788049 355.4538765 23.88422108 C355.45776626 25.34483429 355.46210151 26.80544638 355.46686172 28.26605701 C355.47431026 31.32240948 355.47404221 34.3786464 355.46876907 37.43500233 C355.46297013 41.34572885 355.47992186 45.25598242 355.50311375 49.16663074 C355.51786477 52.18128682 355.51872105 55.19582925 355.51560402 58.21051502 C355.51611635 59.65217496 355.52133748 61.0938414 355.53141594 62.53546619 C355.54379086 64.55272253 355.53503925 66.57007477 355.5254097 68.58734608 C355.52603912 69.73364491 355.52666855 70.87994373 355.52731705 72.06097889 C355.10330418 75.54312298 354.30183636 77.37685701 352.15309525 80.13422108 C348.81396046 82.29972281 346.04763399 82.38634781 342.11787987 82.39148998 C340.87352704 82.39793887 339.62917422 82.40438777 338.34711373 82.41103208 C336.96384715 82.40808972 335.58058097 82.40495427 334.19731522 82.40164661 C332.72970784 82.40538214 331.26210245 82.40998327 329.79450023 82.41537726 C325.75613829 82.42763474 321.71785901 82.42734357 317.6794827 82.42498851 C313.32628296 82.42458104 308.97310997 82.43561279 304.61992264 82.44510365 C296.08929069 82.46172947 287.55868638 82.4672139 279.02803959 82.4683284 C272.09549671 82.46927809 265.16296296 82.4733844 258.23042297 82.47972965 C238.5842848 82.49734607 218.93816849 82.50656785 199.29202236 82.5050687 C197.70272365 82.50494884 197.70272365 82.50494884 196.0813179 82.50482655 C195.02049491 82.50474478 193.95967192 82.50466302 192.86670278 82.50457878 C175.67001247 82.50376568 158.47340972 82.52290846 141.27674474 82.55110328 C123.6280492 82.5798114 105.9793964 82.59364473 88.33067691 82.59191573 C78.41873471 82.59125113 68.50688428 82.59677404 58.59496307 82.61827183 C50.15646963 82.63645634 41.71810957 82.64085345 33.27960505 82.62725298 C28.97302386 82.6207096 24.66669879 82.62065529 20.36014175 82.63795948 C16.41842929 82.65363501 12.47717717 82.6508836 8.53547631 82.63339122 C7.10884782 82.63030909 5.68218544 82.63399924 4.25559689 82.64511137 C-9.13492955 82.74251373 -9.13492955 82.74251373 -13.84690475 78.13422108 C-15.76284551 74.08734164 -16.09884543 70.49567699 -16.10569382 66.05634022 C-16.11199814 64.87814213 -16.11830246 63.69994404 -16.12479782 62.48604298 C-16.12074936 61.22654331 -16.1167009 59.96704365 -16.11252975 58.66937733 C-16.11444321 57.36270603 -16.11635666 56.05603474 -16.11832809 54.70976734 C-16.12126795 51.95024326 -16.11701927 49.19084913 -16.10764694 46.43134022 C-16.0962642 42.90990577 -16.10281145 39.38877665 -16.11479187 35.86735344 C-16.12379542 32.48883755 -16.11747355 29.11040187 -16.11252975 25.73187733 C-16.11657822 24.47440189 -16.12062668 23.21692646 -16.12479782 21.92134571 C-16.06437187 10.59828504 -16.06437187 10.59828504 -13.84690475 5.13422108 C-9.43899725 0.83933684 -6.01126794 0.01010146 0 0 Z " fill="#FDFDFD" transform="translate(171.84690475463867,569.8657789230347)"/>
<path d="M0 0 C137.61 0 275.22 0 417 0 C416.67 0.99 416.34 1.98 416 3 C279.05 3 142.1 3 1 3 C0.67 2.01 0.34 1.02 0 0 Z " fill="#F3F3F3" transform="translate(133,1)"/>
<path d="M0 0 C2 0 2 0 4.4375 2.25 C6.47004286 4.4312655 8.28819148 6.56743 10 9 C9.67 9.66 9.34 10.32 9 11 C7.49403892 9.54782324 5.99537896 8.08807139 4.5 6.625 C3.6646875 5.81289062 2.829375 5.00078125 1.96875 4.1640625 C0 2 0 2 0 0 Z " fill="#F2F2F2" transform="translate(99,239)"/>
<path d="" fill="#000000" transform="translate(0,0)"/>
<path d="" fill="#000000" transform="translate(0,0)"/>
<path d="" fill="#000000" transform="translate(0,0)"/>
<path d="" fill="#000000" transform="translate(0,0)"/>
<path d="" fill="#000000" transform="translate(0,0)"/>
<path d="" fill="#000000" transform="translate(0,0)"/>
<path d="" fill="#000000" transform="translate(0,0)"/>
<path d="" fill="#000000" transform="translate(0,0)"/>
<path d="" fill="#000000" transform="translate(0,0)"/>
<path d="" fill="#000000" transform="translate(0,0)"/>
<path d="" fill="#000000" transform="translate(0,0)"/>
<path d="" fill="#000000" transform="translate(0,0)"/>
<path d="" fill="#000000" transform="translate(0,0)"/>
<path d="" fill="#000000" transform="translate(0,0)"/>
<path d="" fill="#000000" transform="translate(0,0)"/>
<path d="" fill="#000000" transform="translate(0,0)"/>
<path d="" fill="#000000" transform="translate(0,0)"/>
</svg>
