<?xml version="1.0" encoding="UTF-8"?>
<svg version="1.1" xmlns="http://www.w3.org/2000/svg" width="605" height="720">
<path d="M0 0 C0.95551758 0.4846875 1.91103516 0.969375 2.89550781 1.46875 C4.00104004 2.01813232 5.10657227 2.56751465 6.24560547 3.13354492 C7.122883 3.5807338 7.122883 3.5807338 8.0178833 4.03695679 C11.21944332 5.6664489 14.4461047 7.24516972 17.66894531 8.83203125 C18.34931854 9.16850174 19.02969177 9.50497223 19.73068237 9.85163879 C27.66171 13.76367462 35.68103155 17.4801072 43.72363281 21.15625 C44.46416901 21.49473969 45.2047052 21.83322937 45.96768188 22.18197632 C58.78913965 28.02705009 71.72648112 33.5067286 84.8359375 38.67871094 C88.16094542 39.99338782 91.47772577 41.32738867 94.79394531 42.6640625 C112.34711285 49.69914102 130.09770777 56.08438771 147.97558594 62.23699951 C150.05019953 62.9520565 152.123395 63.67108875 154.19628906 64.39111328 C184.09318974 74.75636671 214.47218369 83.16663684 245.16113281 90.84375 C246.05345612 91.06699951 246.94577942 91.29024902 247.86514282 91.52026367 C250.47462203 92.17085931 253.08528918 92.81647469 255.69628906 93.4609375 C256.53811234 93.6711554 257.37993561 93.88137329 258.24726868 94.09796143 C262.84283363 95.23041501 267.4399506 96.25046977 272.08642578 97.15332031 C273.07952255 97.35442413 274.07261932 97.55552795 275.09580994 97.76272583 C276.99749185 98.14406819 278.90375091 98.50351059 280.81446838 98.8366394 C286.54693028 100.00626541 289.49715339 101.63104293 293.04237366 106.334198 C295.21977706 109.70371113 295.22735363 111.93756307 295.23497009 115.95010376 C295.24171784 117.87118391 295.24171784 117.87118391 295.24860191 119.83107376 C295.24824478 121.26319639 295.24764427 122.69531897 295.24682617 124.12744141 C295.24917792 125.63473935 295.25179726 127.1420369 295.25466347 128.64933395 C295.26048276 132.79027071 295.2583514 136.93116783 295.25372815 141.07210493 C295.25096472 143.7066055 295.24979073 146.34110322 295.24885368 148.97560501 C295.22573102 190.75849123 294.55647274 232.52948899 293.81902921 274.30485463 C293.67563917 282.45151505 293.53939801 290.59828315 293.40495926 298.74509561 C293.24039773 308.71454111 293.0713688 318.68390716 292.90083575 328.65325212 C292.85330796 331.44699099 292.80654213 334.24074169 292.75995064 337.03449631 C292.20775768 369.97542761 292.20775768 369.97542761 291.59912109 385.45776367 C291.54154806 386.92396306 291.54154806 386.92396306 291.48281193 388.41978264 C291.17054875 395.64748572 290.52428149 402.75286426 289.41113281 409.90625 C289.15058105 411.63536621 289.15058105 411.63536621 288.88476562 413.39941406 C279.72574622 471.60760154 253.90097812 524.76836975 215.09863281 568.96875 C214.46570313 569.7009375 213.83277344 570.433125 213.18066406 571.1875 C211.49956359 573.12634357 209.80007996 575.04776129 208.09863281 576.96875 C207.51855469 577.64164063 206.93847656 578.31453125 206.34082031 579.0078125 C200.9775466 585.12825427 195.27991389 590.89425047 189.53613281 596.65625 C188.73272461 597.46425049 187.92931641 598.27225098 187.1015625 599.10473633 C182.26134663 603.93254902 177.2932007 608.52656039 172.09863281 612.96875 C171.01560223 613.91813203 169.93352271 614.86860044 168.85253906 615.8203125 C159.90928777 623.6213097 150.61848446 630.88665286 141.09863281 637.96875 C140.3712793 638.51176758 139.64392578 639.05478516 138.89453125 639.61425781 C100.764726 667.97151024 58.19076818 689.79903094 13.80404663 706.54241943 C11.9059516 707.25959276 10.01257951 707.98922734 8.11938477 708.71923828 C-5.42733203 713.70024026 -13.82214143 711.84176504 -26.96386719 706.65625 C-28.38288479 706.10904339 -29.80215929 705.56250254 -31.22167969 705.01660156 C-48.75489913 698.22384898 -66.04001889 690.77038157 -82.72802734 682.09228516 C-85.25020802 680.78841238 -87.78483866 679.51022963 -90.31933594 678.23046875 C-102.97619251 671.79131284 -115.04854773 664.78385937 -126.90136719 656.96875 C-128.00738281 656.24945312 -129.11339844 655.53015625 -130.25292969 654.7890625 C-149.32278778 642.26031668 -167.69456088 628.46462636 -184.56152344 613.08984375 C-186.68941534 611.16088665 -188.84857578 609.27838647 -191.02636719 607.40625 C-194.47283728 604.40962038 -197.67375337 601.22072123 -200.87011719 597.9609375 C-203.59535435 595.28810875 -206.49203427 592.84569838 -209.43261719 590.4140625 C-210.15964844 589.69863281 -210.15964844 589.69863281 -210.90136719 588.96875 C-210.90136719 588.30875 -210.90136719 587.64875 -210.90136719 586.96875 C-211.56136719 586.96875 -212.22136719 586.96875 -212.90136719 586.96875 C-214.27636719 585.60546875 -214.27636719 585.60546875 -215.90136719 583.65625 C-218.78995116 580.25227552 -221.74930396 576.93792602 -224.77636719 573.65625 C-263.76434903 530.7929567 -291.00265031 478.17675803 -301.65136719 421.15625 C-301.85028564 420.1154126 -302.0492041 419.0745752 -302.25415039 418.00219727 C-305.8134894 397.73488424 -306.2172033 377.02268641 -306.49560547 356.4987793 C-306.5346266 354.06450821 -306.57435174 351.63024833 -306.61471558 349.19599915 C-306.71001913 343.34069242 -306.79806169 337.48531132 -306.88260187 331.62984004 C-306.98188071 324.77966619 -307.09019805 317.92964325 -307.19886409 311.07961295 C-307.39271851 298.84312695 -307.57924863 286.60654092 -307.76123047 274.36987305 C-307.93699951 262.55176573 -308.11702472 250.73373455 -308.30224609 238.91577148 C-308.31366863 238.18689874 -308.32509116 237.458026 -308.33685984 236.7070662 C-308.38281444 233.77538807 -308.42878135 230.84371014 -308.47476877 227.91203253 C-308.67408525 215.19890844 -308.86992886 202.48573049 -309.06527632 189.77254489 C-309.09663205 187.73356662 -309.12806418 185.69458953 -309.15951395 183.65561271 C-309.27912771 175.89508124 -309.39696975 168.13452565 -309.51234818 160.37392998 C-309.54731032 158.03603095 -309.58276563 155.69813922 -309.61878204 153.3602562 C-309.71371653 147.1833673 -309.79859497 141.00653381 -309.86666727 134.82928824 C-309.89001335 132.90472003 -309.91767899 130.98019988 -309.9494338 129.05575204 C-309.99473774 126.29218108 -310.02644536 123.52875529 -310.05514526 120.76496887 C-310.071691 119.95278418 -310.08823673 119.14059949 -310.10528386 118.30380315 C-310.14049928 113.06695188 -309.4544503 109.04402117 -306.58105469 104.52734375 C-302.08050241 100.35124989 -296.26951243 99.13772868 -290.46386719 97.83984375 C-289.64402344 97.64960632 -288.82417969 97.4593689 -287.97949219 97.2633667 C-286.21209955 96.85335711 -284.44400578 96.44636038 -282.67529297 96.04208374 C-277.9123319 94.95032729 -273.1569931 93.82633242 -268.40136719 92.703125 C-266.94597534 92.35975349 -266.94597534 92.35975349 -265.46118164 92.00944519 C-183.62149601 72.6348048 -103.76085733 43.87917827 -22.03417969 4.4296875 C-20.32334771 3.60915495 -18.61242234 2.78881707 -16.90136719 1.96875 C-16.24233398 1.63907227 -15.58330078 1.30939453 -14.90429688 0.96972656 C-9.83054588 -1.44192325 -5.33811906 -1.89735905 0 0 Z M-15.46777344 35.4140625 C-17.06711263 36.16209496 -18.66656426 36.90988704 -20.26611328 37.6574707 C-21.53584991 38.25309311 -21.53584991 38.25309311 -22.83123779 38.86074829 C-101.02106537 75.48124308 -182.56647404 103.85559415 -278.90136719 126.96875 C-278.93534082 141.64346238 -278.84930757 156.31269493 -278.65771484 170.98608398 C-278.63130558 173.08678568 -278.6049975 175.18748864 -278.57878113 177.28819275 C-278.49320921 184.09710561 -278.40454229 190.90597644 -278.31542969 197.71484375 C-278.30019493 198.88298654 -278.28496017 200.05112933 -278.26926374 201.25467038 C-278.12497486 212.31662664 -277.97966403 223.37856892 -277.83153725 234.44047451 C-277.64384264 248.46071305 -277.46147128 262.48099756 -277.28654253 276.50140136 C-277.16217693 286.43353453 -277.0316138 296.36557518 -276.89664304 306.29756981 C-276.81665238 312.19528633 -276.73917382 318.09300771 -276.66841507 323.99084282 C-275.56275287 415.47558501 -258.81330274 494.69716837 -184.89990234 571.17602539 C-183.13276009 572.92466224 -181.37400103 574.6814199 -179.61621094 576.43945312 C-173.87970773 582.15819704 -168.09934075 587.74605109 -161.90136719 592.96875 C-160.87967602 593.85708727 -159.85879945 594.74636258 -158.83886719 595.63671875 C-150.47463282 602.81082935 -141.80451849 609.47848477 -132.90136719 615.96875 C-132.23121582 616.45988281 -131.56106445 616.95101562 -130.87060547 617.45703125 C-109.53078036 633.03669649 -86.71813903 646.43997832 -62.95410156 657.96679688 C-60.86083929 658.98853193 -58.77971428 660.03261055 -56.69824219 661.078125 C-46.934881 665.91392006 -36.93725258 670.05448254 -26.77636719 673.96875 C-26.15339752 674.2123526 -25.53042786 674.4559552 -24.88858032 674.7069397 C-12.19124801 679.6509725 -5.08601071 681.1300203 7.72363281 676.15625 C8.8095874 675.74898682 9.89554199 675.34172363 11.0144043 674.92211914 C27.08458558 668.81007062 42.85136314 661.93999694 58.10449219 654.00048828 C60.21402354 652.90904858 62.33529313 651.84289434 64.45800781 650.77734375 C82.89553303 641.41823375 100.58028437 630.41096125 117.09863281 617.96875 C117.76411133 617.47165527 118.42958984 616.97456055 119.11523438 616.46240234 C132.33241153 606.572059 144.93407493 596.13275983 157.09863281 584.96875 C157.64213379 584.47568359 158.18563477 583.98261719 158.74560547 583.47460938 C172.21957936 571.2396641 184.86110962 558.30820109 196.09863281 543.96875 C197.18808928 542.6090646 198.27796799 541.24971746 199.36816406 539.890625 C207.27450219 529.96458574 214.51639886 519.81789438 221.09863281 508.96875 C221.5857373 508.17130371 222.0728418 507.37385742 222.57470703 506.55224609 C242.74702955 473.25138987 256.43639561 434.85592656 260.09863281 395.96875 C260.19660156 395.02128906 260.29457031 394.07382812 260.39550781 393.09765625 C262.30834537 371.91579333 262.2862717 350.50308965 262.57102919 329.25369358 C262.61875137 325.74235985 262.6700768 322.2310782 262.72085571 318.7197876 C262.81781812 311.97354198 262.91129698 305.22725271 263.00337207 298.48093879 C263.0775149 293.05379215 263.15314032 287.62666786 263.22967529 282.19955444 C263.95889267 230.45711571 264.59531232 178.71392026 265.09863281 126.96875 C264.10202133 126.75062653 263.10540985 126.53250305 262.07859802 126.30776978 C225.05885012 118.19446148 225.05885012 118.19446148 211.16113281 114.34375 C210.06978531 114.04493423 210.06978531 114.04493423 208.95639038 113.74008179 C139.95850794 94.80779713 73.62817969 69.0205047 8.90722656 38.67578125 C5.25983457 36.97184238 1.61154096 35.27069663 -2.05371094 33.60546875 C-3.10353149 33.12726685 -3.10353149 33.12726685 -4.17456055 32.6394043 C-8.32279514 31.02831983 -11.73427372 33.64696248 -15.46777344 35.4140625 Z " fill="#F4F4F4" transform="translate(309.9013671875,5.03125)"/>
<path d="M0 0 C1.05703125 0.350625 2.1140625 0.70125 3.203125 1.0625 C25.26692795 9.37974509 41.53487141 26.04483369 51.31640625 47.17578125 C63.75990217 75.11001946 64.34578413 113.61880336 54.6875 142.5625 C45.54777492 165.72370244 28.45690982 181.83303535 5.9375 191.875 C-3.98604506 196.12317867 -14.21931862 198.42711355 -25 199 C-26.18529297 199.07927734 -26.18529297 199.07927734 -27.39453125 199.16015625 C-51.02118298 199.99489203 -73.45578059 191.71042425 -91 176 C-108.98967539 158.75873946 -118.72451949 135.22842653 -119.33337402 110.39533997 C-119.37387815 106.80210707 -119.3692802 103.21095824 -119.33618164 99.61767578 C-119.31246651 96.87112183 -119.31566432 94.12553781 -119.32226562 91.37890625 C-119.28245407 65.35912498 -114.47955724 41.7912478 -95.78515625 22.75 C-94.86605469 21.8425 -93.94695312 20.935 -93 20 C-92.17371094 19.175 -91.34742188 18.35 -90.49609375 17.5 C-81.11301723 8.58381814 -70.26004678 2.96563124 -58 -1 C-57.01515625 -1.32097656 -56.0303125 -1.64195312 -55.015625 -1.97265625 C-37.52303751 -6.65040042 -17.12336099 -5.68286216 0 0 Z M-76 47 C-87.15154286 60.52516443 -88.36002942 76.42551165 -88.31567383 93.24121094 C-88.31252332 95.73156965 -88.3360131 98.22072553 -88.36132812 100.7109375 C-88.43205963 118.44430434 -85.97461974 135.10600341 -74 149 C-73.46117187 149.65613281 -72.92234375 150.31226563 -72.3671875 150.98828125 C-64.04634296 160.26368155 -50.40596521 167.20339506 -37.97167969 168.15527344 C-19.27954754 169.14596463 -2.61894764 164.4651275 11.8203125 152.15625 C27.02331854 137.11671714 29.24504986 117.72183841 29.375 97.4375 C29.38893799 96.14811523 29.40287598 94.85873047 29.41723633 93.53027344 C29.32784728 75.23918495 25.30760105 58.0627343 13 44 C1.40280598 32.54181345 -14.30099408 26.79683634 -30.4375 26.625 C-49.0172888 26.82267923 -63.4054492 33.62062556 -76 47 Z " fill="#F4F4F4" transform="translate(406,201)"/>
<path d="M0 0 C1.08152344 0.32871094 2.16304688 0.65742188 3.27734375 0.99609375 C22.89401751 7.7371386 39.31590629 23.2191721 48.54467773 41.63500977 C48.90118408 42.37420654 49.25769043 43.11340332 49.625 43.875 C49.96797119 44.57616943 50.31094238 45.27733887 50.66430664 45.99975586 C52.69376176 50.44933225 53.69153009 54.03036 53 59 C51.3125 61.6328125 51.3125 61.6328125 49 64.125 C43.39738434 70.53304698 37.92377356 77.75862448 34.96484375 85.8203125 C34.64644531 86.53960937 34.32804688 87.25890625 34 88 C33.01 88.33 32.02 88.66 31 89 C29.11998301 87.11998301 29.44066683 84.34282758 29.10083008 81.81640625 C26.86198067 65.43868533 21.82306551 50.48617734 8.50390625 39.6953125 C-3.97658993 31.24517936 -16.38900516 26.72303812 -31.6875 28.5625 C-46.51014372 31.41790499 -59.65779298 39.11430325 -68.69140625 51.27734375 C-80.84540402 70.07187163 -80.89788628 99.67775975 -76.875 121.3125 C-73.76913576 134.39739101 -66.43194532 144.17313088 -55.0625 151.3125 C-39.45491031 160.02090785 -23.21441765 162.44554152 -5.8371582 157.83422852 C5.27553642 154.61800118 13.32892239 149.71713365 21 141 C23 142 23 142 23.60571289 143.61157227 C24.48101437 148.91378552 24.34654357 154.33541993 24.4050293 159.69897461 C24.42665387 161.18976951 24.46081066 162.68043593 24.50756836 164.1706543 C24.5746487 166.33178713 24.60202632 168.49031641 24.62109375 170.65234375 C24.6461499 171.94132568 24.67120605 173.23030762 24.69702148 174.55834961 C23.76079371 179.18111771 21.84300781 180.41666758 18 183 C15.99291992 184.08666992 15.99291992 184.08666992 14.23046875 184.73046875 C13.57385254 184.97514893 12.91723633 185.2198291 12.24072266 185.47192383 C11.22437744 185.82613403 11.22437744 185.82613403 10.1875 186.1875 C9.47899902 186.44233154 8.77049805 186.69716309 8.04052734 186.9597168 C-14.27706213 194.82944208 -40.27500791 194.06696896 -61.88867188 184.13183594 C-80.15482881 175.01808673 -93.81782273 161.06609356 -103 143 C-103.42152344 142.21625 -103.84304687 141.4325 -104.27734375 140.625 C-111.09325812 126.22155831 -110.28388568 108.62347008 -110.3125 93.0625 C-110.31608521 92.27362396 -110.31967041 91.48474792 -110.32336426 90.67196655 C-110.39096238 62.99592801 -104.20596743 40.65185378 -84.4375 20.37109375 C-61.96573678 -1.02280874 -29.86389101 -9.23201637 0 0 Z " fill="#F3F3F3" transform="translate(252,152)"/>
<path d="M0 0 C2.96451079 2.89039802 5.16325539 5.48538551 6.5 9.4375 C6.5 14.89033955 5.00669221 18.30140149 1.5 22.4375 C-4.51533775 27.34216102 -11.70873002 29.36858595 -19.01177979 31.63040161 C-41.97296821 38.78590443 -62.79769 47.52457411 -75.203125 69.30078125 C-78.65992346 77.66165221 -78.79171857 86.30315813 -78.80859375 95.234375 C-78.83373108 97.6809922 -78.85912939 100.12760673 -78.88476562 102.57421875 C-78.91358541 106.39468823 -78.93763489 110.21511173 -78.95629883 114.03564453 C-78.97793451 117.74794672 -79.01734334 121.45974656 -79.05859375 125.171875 C-79.05870956 126.3125946 -79.05882538 127.45331421 -79.0589447 128.62860107 C-79.14226281 135.30222758 -79.50275725 140.27084787 -84.296875 145.3359375 C-87.66445665 147.88182923 -89.8983782 149.3337721 -94.125 150.0625 C-99.26242914 149.11112423 -102.20343448 146.80609694 -105.75 143.0625 C-109.73939565 137.07840652 -109.79614074 131.33561532 -109.765625 124.38671875 C-109.76753845 123.41450882 -109.7694519 122.44229889 -109.77142334 121.44062805 C-109.77278181 119.38220969 -109.76910902 117.32378266 -109.76074219 115.26538086 C-109.75016576 112.17345945 -109.76058239 109.08213626 -109.7734375 105.99023438 C-109.79460917 77.35317767 -105.81468457 53.54025189 -85.23046875 32.0703125 C-69.80602376 17.28535528 -48.00344076 8.17795902 -27.9375 1.8125 C-26.88006592 1.46952881 -25.82263184 1.12655762 -24.7331543 0.77319336 C-16.67709742 -1.65304045 -7.93884167 -3.54412575 0 0 Z " fill="#F2F2F2" transform="translate(318.5,396.5625)"/>
<path d="M0 0 C1.22589844 -0.04898437 2.45179688 -0.09796875 3.71484375 -0.1484375 C7.0625 0.375 7.0625 0.375 9.44140625 2.7734375 C12.81368535 8.18533601 12.63165239 13.08132937 12.0625 19.375 C9.23580014 25.85285385 3.52663788 28.92865448 -2.79980469 31.57006836 C-6.04445243 32.78312301 -9.3012756 33.95728795 -12.5625 35.125 C-22.64536117 38.87867386 -31.40937523 42.77333868 -39.9375 49.375 C-40.85273437 50.05820312 -41.76796875 50.74140625 -42.7109375 51.4453125 C-51.61506783 58.69161676 -58.02208092 68.96682336 -59.9375 80.375 C-60.22430576 84.58764027 -60.23821146 88.79042578 -60.24609375 93.01171875 C-60.27123512 95.4694036 -60.29663339 97.92708584 -60.32226562 100.38476562 C-60.35108212 104.23607812 -60.3751205 108.0873455 -60.39379883 111.9387207 C-60.41541468 115.6716118 -60.45482834 119.40400081 -60.49609375 123.13671875 C-60.49620956 124.28887375 -60.49632538 125.44102875 -60.4964447 126.62809753 C-60.50978348 127.7030397 -60.52312225 128.77798187 -60.53686523 129.88549805 C-60.54447121 131.29825264 -60.54447121 131.29825264 -60.55223083 132.73954773 C-61.43760774 138.79601109 -65.35617737 141.86590182 -69.9375 145.375 C-73.04703379 146.9297669 -75.50016761 146.66144437 -78.9375 146.375 C-83.87668408 143.76013784 -87.42484878 140.40030244 -89.9375 135.375 C-90.04888772 133.55045882 -90.0967425 131.72189481 -90.11450195 129.89404297 C-90.12733719 128.74459198 -90.14017242 127.59514099 -90.15339661 126.41085815 C-90.16078354 125.15894684 -90.16817047 123.90703552 -90.17578125 122.6171875 C-90.183853 121.32620148 -90.19192474 120.03521545 -90.20024109 118.70510864 C-90.21528796 115.95949434 -90.22510977 113.21390598 -90.23266602 110.46826172 C-90.24144744 107.68092451 -90.2621256 104.89409869 -90.29418945 102.10693359 C-90.61422287 73.69099849 -87.14728982 53.43501819 -67.1875 32.1875 C-50.97787391 16.78835522 -22.49087753 0.61360212 0 0 Z " fill="#F4F4F5" transform="translate(164.9375,343.625)"/>
<path d="M0 0 C22.47754118 10.28842945 39.47865293 24.21546534 48.35766602 48.02905273 C51.9597968 59.31802721 53.51651304 75.22926922 49.42407227 86.52514648 C45.95554182 90.59659122 42.75173499 92.09366173 37.43579102 92.78295898 C33.93817463 92.98056443 31.6078187 92.61897445 28.48657227 91.02514648 C24.27505271 85.9202743 25.44124789 79.43567337 25.54907227 73.15014648 C25.56143525 60.66352952 22.25211688 53.45539712 13.42407227 44.52514648 C-0.3645768 32.06552383 -16.29578869 25.94680626 -33.81420898 20.38452148 C-53.45660669 14.12799226 -53.45660669 14.12799226 -57.45092773 7.33764648 C-58.82575731 2.67850182 -59.43520665 -0.89305903 -57.57592773 -5.47485352 C-44.44140908 -20.88265424 -14.79754552 -6.51902602 0 0 Z " fill="#F2F2F2" transform="translate(484.575927734375,407.474853515625)"/>
<path d="M0 0 C3.30118794 0.5805321 4.91134076 1.54868099 7.234375 3.94140625 C8.09482422 4.81635742 8.09482422 4.81635742 8.97265625 5.70898438 C9.55917969 6.32064453 10.14570312 6.93230469 10.75 7.5625 C11.35199219 8.17802734 11.95398438 8.79355469 12.57421875 9.42773438 C14.05634381 10.94514813 15.5290967 12.47170596 17 14 C16.67 14.66 16.34 15.32 16 16 C15.43152344 15.41992188 14.86304687 14.83984375 14.27734375 14.2421875 C10.60220715 10.52410272 6.94234838 6.86472917 2.9375 3.5 C1.968125 2.675 0.99875 1.85 0 1 C0 0.67 0 0.34 0 0 Z " fill="#C0C0C0" transform="translate(100,594)"/>
</svg>
