<svg width="284" height="91" xmlns="http://www.w3.org/2000/svg" xmlns:xlink="http://www.w3.org/1999/xlink" xml:space="preserve" overflow="hidden"><g transform="translate(-584 -325)"><g><g><g><path d="M64.4047 96.9052C60.3297 96.5076 56.2547 96.607 52.1797 97.1039 48.3035 97.5015 44.5267 98.396 40.9486 99.4893 33.9914 101.676 27.7298 105.055 22.9591 109.329 22.0646 110.124 21.2694 110.82 20.5737 111.615 19.4804 112.708 18.4865 113.801 17.592 115.094 16.7969 116.286 16.1012 117.479 15.5048 118.672 14.1134 121.554 13.4176 124.536 13.517 127.517L13.517 140.935C13.517 145.109 14.4115 148.687 16.2006 151.868 18.4865 155.843 24.0524 160.813 26.9347 163.099 28.2267 164.093 29.32 164.987 30.4133 165.882 31.109 166.478 31.8048 166.975 32.5005 167.472 33.7926 168.466 34.9852 169.46 36.3767 170.454 37.1718 171.05 37.9669 171.646 38.8615 172.342 39.5572 172.839 40.4517 173.137 41.3462 173.137 42.2407 173.137 41.3462 173.137 41.3462 173.137 42.2407 173.137 43.1352 172.839 43.8309 172.243L45.5206 170.951C45.5206 170.951 45.7194 170.851 45.8187 170.752L49.9931 167.571 55.8571 163.099C58.8388 160.813 64.4047 155.843 66.6906 151.868 68.4797 148.687 69.3742 145.109 69.3742 140.935L69.3742 111.615 69.3742 102.073 69.3742 97.4021 64.6034 97.0046 64.4047 97.0046ZM27.4316 155.346C24.9469 153.06 22.4621 150.476 21.4682 148.687 20.2755 146.501 19.5798 143.917 19.5798 140.835L19.5798 137.456 27.3322 137.456 27.3322 155.247 27.4316 155.247ZM27.4316 121.554 27.4316 132.586 19.6792 132.586 19.6792 127.617C19.9774 125.331 20.2755 123.243 21.2694 121.256 22.1639 119.566 23.3566 117.876 24.9469 116.187 26.2389 114.994 27.6304 114 29.1212 113.304 28.028 115.69 27.531 118.572 27.531 121.653ZM53.3724 101.576C53.3724 101.576 53.3724 101.378 53.5712 101.378L57.9443 101.378 57.9443 102.57 55.062 102.57 55.062 104.161 57.8449 104.161 57.8449 105.155C57.8449 105.155 57.8449 105.353 57.6461 105.353L55.062 105.353 55.062 106.745 57.9443 106.745C57.9443 106.745 58.2425 106.944 58.2425 107.043L58.2425 108.037 53.3724 108.037 53.3724 101.278 53.3724 101.576ZM47.7072 101.378 52.0803 101.378 52.0803 102.57 49.198 102.57 49.198 104.161 51.7821 104.161 51.7821 105.353 49.198 105.353 49.198 108.037 47.6078 108.037 47.6078 101.08 47.6078 101.378ZM32.6993 121.554C32.6993 120.262 32.6993 119.169 32.9975 118.075 34.4883 114 38.3645 111.019 42.9364 111.019 47.5084 111.019 49.3968 112.609 51.3846 115.292 50.2913 116.187 49.2974 117.081 48.4029 118.075 44.7255 122.15 42.4395 127.02 41.7438 132.586L32.7987 132.586 32.7987 121.554ZM51.7821 158.03 41.7438 165.683C41.3462 165.981 40.8493 165.981 40.5511 165.683 38.2651 163.993 36.4761 162.503 34.2895 160.813 33.7926 160.415 33.1962 160.018 32.6993 159.521L32.6993 137.456 41.4456 137.456C41.7438 141.829 42.9364 145.904 45.123 149.582 47.0114 152.663 49.3968 155.346 52.3785 157.434 52.1797 157.632 51.9809 157.831 51.7821 157.931ZM62.8144 140.935C62.8144 144.016 62.2181 146.6 61.0254 148.787 60.2303 150.278 58.4413 152.265 56.4535 154.154 53.6706 152.365 51.3846 149.979 49.695 147.097 48.0053 144.215 47.0114 141.134 46.7133 137.655L62.8144 137.655 62.8144 141.034ZM62.8144 132.586 46.912 132.586C47.6078 128.412 49.3968 124.635 52.1797 121.554 55.062 118.373 58.7394 116.187 62.715 115.094L62.715 132.487ZM64.6034 106.645C64.6034 108.037 63.9077 108.434 62.3175 108.434L59.137 108.434 59.137 101.676C59.137 101.676 59.137 101.477 59.3358 101.477L62.3175 101.477C63.8083 101.477 64.4047 102.073 64.4047 103.366 64.4047 104.658 64.2059 104.459 63.5102 104.856 64.2059 105.155 64.6034 105.751 64.6034 106.347L64.6034 106.844C64.6034 106.844 64.6034 106.645 64.6034 106.645ZM62.1187 104.359 60.8266 104.359 60.8266 102.769 62.1187 102.769C62.5163 102.769 62.8144 102.769 62.8144 103.465L62.8144 103.763C62.8144 104.359 62.5163 104.459 62.1187 104.459ZM63.1126 106.148 63.1126 106.546C63.1126 107.043 62.8144 107.043 62.3175 107.043L60.8266 107.043 60.8266 105.453 62.3175 105.453C62.8144 105.453 63.1126 105.651 63.1126 106.148Z" fill="#FFFFFF" fill-rule="nonzero" fill-opacity="1" transform="matrix(1.00791 0 0 1 584 234.689)"/><path d="M104.57 117.242 108.462 117.242 108.462 121.134 104.57 121.134Z" fill="#FFFFFF" fill-rule="nonzero" fill-opacity="1" transform="matrix(0.70991 -0.704337 0.70991 0.704337 530.706 344.416)"/><path d="M104.471 126.223 108.362 126.223 108.362 130.114 104.471 130.114Z" fill="#FFFFFF" fill-rule="nonzero" fill-opacity="1" transform="matrix(0.70991 -0.704337 0.70991 0.704337 524.295 347.099)"/><path d="M104.471 98.8828 108.362 98.8828 108.362 102.774 104.471 102.774Z" fill="#FFFFFF" fill-rule="nonzero" fill-opacity="1" transform="matrix(0.70991 -0.704337 0.70991 0.704337 543.729 339.049)"/><path d="M104.57 153.463 108.462 153.463 108.462 157.354 104.57 157.354Z" fill="#FFFFFF" fill-rule="nonzero" fill-opacity="1" transform="matrix(0.70991 -0.704337 0.70991 0.704337 505.061 355.051)"/><path d="M104.57 108.063 108.462 108.063 108.462 111.954 104.57 111.954Z" fill="#FFFFFF" fill-rule="nonzero" fill-opacity="1" transform="matrix(0.70991 -0.704337 0.70991 0.704337 537.218 341.732)"/><path d="M104.57 135.303 108.462 135.303 108.462 139.194 104.57 139.194Z" fill="#FFFFFF" fill-rule="nonzero" fill-opacity="1" transform="matrix(0.70991 -0.704337 0.70991 0.704337 517.884 349.783)"/><path d="M104.471 162.543 108.362 162.543 108.362 166.434 104.471 166.434Z" fill="#FFFFFF" fill-rule="nonzero" fill-opacity="1" transform="matrix(0.70991 -0.704337 0.70991 0.704337 498.55 357.635)"/><path d="M104.57 144.483 108.462 144.483 108.462 148.374 104.57 148.374Z" fill="#FFFFFF" fill-rule="nonzero" fill-opacity="1" transform="matrix(0.70991 -0.704337 0.70991 0.704337 511.372 352.367)"/><path d="M190.332 122.548C188.741 122.548 187.052 122.548 185.462 122.548 185.362 122.548 185.263 122.548 185.263 122.747 184.965 127.318 184.666 131.99 184.468 136.562 184.468 136.661 184.468 136.761 184.666 136.761 186.455 136.761 188.244 136.761 190.034 136.661 190.133 136.661 190.232 136.661 190.232 136.462 190.332 131.89 190.53 127.318 190.63 122.846 190.63 122.747 190.63 122.647 190.431 122.647Z" fill="#FFFFFF" fill-rule="nonzero" fill-opacity="1" transform="matrix(1.00791 0 0 1 584 234.689)"/><path d="M162.105 125.43C162.105 125.43 162.105 125.529 162.006 125.629 161.807 126.722 161.608 127.815 161.509 128.809 161.509 128.909 161.509 129.008 161.707 129.008 163.397 129.008 165.186 129.008 166.876 129.008 166.975 129.008 167.074 129.008 167.074 128.809 167.373 126.921 167.571 125.132 167.87 123.243 167.87 123.243 167.87 123.243 167.77 123.243 167.571 123.243 165.683 123.939 162.105 125.43Z" fill="#FFFFFF" fill-rule="nonzero" fill-opacity="1" transform="matrix(1.00791 0 0 1 584 234.689)"/><path d="M261.594 132.586 259.805 133.679 257.42 122.349 259.606 122.051 256.625 107.937 252.749 108.832C247.381 110.025 241.915 111.118 236.449 112.012L235.554 112.012C235.554 112.112 234.66 112.311 234.66 112.311 228.597 113.205 222.435 114 216.372 114.497L215.477 114.497C215.477 114.497 214.583 114.597 214.583 114.597 209.116 114.994 203.551 115.292 198.084 115.292L194.109 115.292C194.109 115.292 194.109 115.292 194.109 115.292L193.81 115.292C188.741 115.292 183.673 115.094 178.604 114.795 178.604 114.795 174.529 114.497 174.529 114.497 172.839 114.398 171.05 114.199 169.36 114 169.36 114 169.36 114 169.36 114 169.261 114 169.162 114 169.062 114 168.764 114 168.565 114 167.87 114.1L167.87 113.801C167.87 113.801 163.894 113.304 163.894 113.304 161.509 113.006 159.024 112.708 156.539 112.311L155.744 112.311C155.744 112.211 154.949 112.012 154.949 112.012 149.284 111.118 143.618 110.025 138.053 108.733L134.176 107.838 133.083 113.106 133.381 114.1C133.679 114.994 133.878 115.789 134.176 116.684L126.623 153.06 132.586 151.768C138.251 150.476 144.016 149.383 149.781 148.489L151.669 148.19 153.557 147.892C156.34 147.495 159.123 147.097 161.807 146.799L163.795 146.6 165.782 146.401C168.565 146.103 171.348 145.904 174.032 145.706L176.119 145.507 178.206 145.507C183.275 145.109 188.443 144.91 193.512 144.91L194.605 144.91C194.605 144.91 195.5 144.314 195.5 144.314 196.096 144.016 196.593 143.618 196.991 143.42L196.991 144.91C196.991 144.91 200.768 144.91 200.768 144.91 206.234 144.91 211.701 145.308 217.167 145.706L223.528 145.706C223.528 145.606 223.528 146.203 223.528 146.203L226.51 146.501C229.293 146.799 232.075 147.196 234.858 147.495L239.53 148.091C239.53 148.091 243.903 148.886 243.903 148.886 249.27 149.781 254.736 150.874 260.103 152.067L266.067 153.458 261.694 132.487ZM148.787 119.964C147.097 119.765 145.308 119.566 143.618 119.367 143.519 119.367 143.42 119.367 143.42 119.566 142.426 124.536 141.332 129.505 140.339 134.375 140.04 135.667 139.643 137.556 139.046 140.14 139.046 140.14 139.146 140.14 139.245 140.14 141.134 139.842 143.121 139.643 145.109 139.345 145.209 139.345 146.998 138.251 150.377 136.462 150.377 136.462 150.377 136.462 150.476 136.462 150.079 138.748 149.582 141.034 149.184 143.42 143.32 144.314 137.556 145.407 131.791 146.7 133.978 136.562 136.164 126.424 138.351 116.286 137.953 115.193 137.655 114 137.257 112.907 137.257 112.907 137.257 112.708 137.257 112.609 142.923 113.901 148.687 114.994 154.452 115.889 154.054 118.175 153.557 120.461 153.16 122.846 153.16 122.846 153.06 122.846 152.961 122.846 150.476 121.057 149.184 120.063 148.886 119.964ZM171.845 138.649C173.038 139.842 173.634 140.537 173.535 140.736 170.752 140.935 167.969 141.134 165.087 141.432 165.484 138.848 165.882 136.264 166.18 133.58 166.18 133.481 166.18 133.381 165.981 133.381 164.192 133.381 162.403 133.481 160.713 133.58 160.614 133.58 160.515 133.58 160.515 133.779 160.217 135.667 159.918 137.655 159.521 139.543 160.018 140.239 160.614 140.935 161.111 141.531 161.111 141.531 161.111 141.631 161.111 141.73 158.328 142.028 155.545 142.426 152.762 142.823 153.657 138.053 154.452 133.282 155.346 128.511 155.744 126.424 156.34 123.144 157.235 118.97 156.241 117.379 155.843 116.386 155.843 116.087 158.328 116.485 160.813 116.783 163.298 117.081 163.198 117.976 162.999 118.771 162.9 119.665 162.9 119.665 162.9 119.665 162.9 119.665 166.577 118.274 168.565 117.678 168.863 117.777 170.652 117.976 172.342 118.075 174.131 118.274 173.336 125.033 172.541 131.89 171.746 138.649ZM193.214 139.941C188.046 139.941 182.877 140.14 177.709 140.438 178.305 133.878 178.902 127.318 179.498 120.858 179.001 120.162 178.405 119.467 177.908 118.771 177.908 118.771 177.908 118.672 177.908 118.572 183.176 118.87 188.543 119.069 193.81 119.169 195.401 120.361 196.196 121.156 196.295 121.256 196.295 126.822 196.295 132.387 196.295 137.953 196.295 137.953 195.202 138.649 193.115 139.941ZM200.569 139.941C200.569 139.941 200.569 139.941 200.569 139.941 200.569 138.351 200.37 132.089 200.171 121.156 199.973 121.156 199.376 120.461 198.283 119.268 198.283 119.268 198.283 119.268 198.283 119.268 203.849 119.268 209.415 118.97 214.98 118.572 215.08 119.765 215.279 121.057 215.378 122.25 212.297 122.349 209.216 122.548 206.135 122.548 206.035 122.548 205.936 122.548 205.936 122.747 205.936 124.138 206.135 125.529 206.234 126.921 206.234 127.02 206.333 127.12 206.433 127.12 208.818 127.12 211.204 127.12 213.589 127.12 213.688 128.412 213.887 129.803 213.986 131.095 211.502 131.095 209.116 131.095 206.632 131.095 206.532 131.095 206.433 131.095 206.433 131.294 206.532 133.182 206.632 134.971 206.731 136.86 206.731 136.959 206.83 137.059 206.93 137.059 208.321 137.059 209.713 137.059 211.204 137.158 211.204 137.158 213.092 136.562 216.471 135.27 216.67 137.257 216.869 139.146 217.167 141.134 211.601 140.736 206.135 140.438 200.569 140.339ZM232.871 139.842C234.461 141.432 235.256 142.426 235.256 142.625 232.473 142.227 229.591 141.929 226.708 141.631 225.714 134.971 224.721 128.412 223.727 121.753 223.727 121.653 223.727 121.554 223.528 121.554 223.031 121.554 222.534 121.554 222.037 121.554 221.938 121.554 220.347 122.349 217.366 123.84 217.366 123.84 217.366 123.84 217.266 123.84 217.068 122.448 216.968 121.057 216.769 119.665 216.769 119.367 216.769 118.87 216.769 118.175 223.031 117.678 229.193 116.982 235.355 115.988 235.753 118.274 236.25 120.56 236.647 122.846 236.449 122.846 234.66 122.15 231.38 120.858 230.883 120.858 230.386 120.858 229.889 120.958 229.789 120.958 229.69 121.057 229.69 121.156 230.783 127.318 231.777 133.58 232.871 139.742ZM244.499 143.917C244.499 143.917 244.499 143.917 244.499 143.817 244.102 141.631 242.412 133.182 239.629 118.274 239.43 118.274 238.635 117.379 237.244 115.889 237.244 115.889 237.244 115.889 237.244 115.789 242.81 114.895 248.276 113.901 253.742 112.609 254.14 114.497 254.538 116.386 254.935 118.274 251.953 118.672 248.872 119.069 245.791 119.467 245.692 119.467 245.592 119.566 245.692 119.765 246.089 121.753 246.487 123.74 246.885 125.728 246.885 125.927 246.984 125.927 247.083 125.927 249.469 125.927 251.854 125.728 254.14 125.629 254.538 127.617 255.035 129.704 255.432 131.692 253.047 131.692 250.562 131.493 248.177 131.393 248.077 131.393 247.978 131.493 247.978 131.692 248.574 134.375 249.071 137.059 249.667 139.742 249.667 139.941 249.767 139.941 249.966 140.04 251.357 140.239 252.749 140.438 254.14 140.637 254.14 140.637 255.83 139.941 258.911 138.053 259.606 141.034 260.203 144.115 260.899 147.097 255.432 145.904 249.966 144.811 244.499 143.917Z" fill="#FFFFFF" fill-rule="nonzero" fill-opacity="1" transform="matrix(1.00791 0 0 1 584 234.689)"/></g></g></g></g></svg>