<?xml version="1.0" encoding="UTF-8"?>
<svg version="1.1" xmlns="http://www.w3.org/2000/svg" width="590" height="741">
<path d="M0 0 C1.13704376 0.00273422 1.13704376 0.00273422 2.29705811 0.00552368 C40.30901272 0.15866494 71.25679549 10.77657977 98.75 37.3125 C99.61367188 38.11300781 100.47734375 38.91351563 101.3671875 39.73828125 C128.79258735 65.83940167 138.75231894 101.31465886 141.7121582 137.86645508 C141.82003662 139.14673584 141.92791504 140.4270166 142.0390625 141.74609375 C142.12881348 142.89134521 142.21856445 144.03659668 142.31103516 145.21655273 C143.0594867 150.49525907 144.69445786 153.53637273 148.4375 157.25 C161.94028513 172.0539626 163.68202291 190.40972143 162.91845703 209.55957031 C161.72133055 229.123046 154.26053835 244.20410356 139.75 257.3125 C138.53957031 258.10333984 138.53957031 258.10333984 137.3046875 258.91015625 C133.64971353 262.34717306 132.36346635 266.25861998 130.5625 270.875 C121.92301182 291.90940496 110.7328519 313.79466523 94.17675781 329.83691406 C90.22502964 333.86819153 89.03037116 336.73119764 89.01806641 342.37963867 C89.05335449 343.22373291 89.08864258 344.06782715 89.125 344.9375 C89.1566626 346.25874878 89.1566626 346.25874878 89.18896484 347.60668945 C89.63448067 358.63270226 92.35575707 368.87852218 99.75 377.3125 C105.97194841 382.53501376 112.65113454 384.88975462 120.39453125 386.9765625 C121.50568802 387.29071609 122.61684479 387.60486969 123.76167297 387.92854309 C126.13268888 388.59800046 128.50559108 389.26080765 130.88018799 389.91744995 C137.10130696 391.64078374 143.30598643 393.42141665 149.51171875 395.19921875 C151.35540039 395.72591911 151.35540039 395.72591911 153.23632812 396.26325989 C200.88160134 409.93532805 256.25568189 427.12060804 282.0234375 473.28125 C282.7322908 474.62062317 283.43307543 475.96430347 284.125 477.3125 C284.434375 477.90353516 284.74375 478.49457031 285.0625 479.10351562 C291.58331517 492.41448398 292.34479711 505.12143013 292.31518555 519.625 C292.32553735 521.63701751 292.33753135 523.64902713 292.35102844 525.661026 C292.38187087 531.08404371 292.38735793 536.50679478 292.38609672 541.92988968 C292.38693083 546.4657755 292.39919775 551.00160451 292.41104633 555.53747272 C292.43833874 566.23318916 292.44376952 576.92876782 292.4362793 587.62451172 C292.42901801 598.65281733 292.46257898 609.68048686 292.51533669 620.7086544 C292.55907458 630.19433782 292.57583795 639.67981515 292.5713008 649.16559792 C292.56897817 654.82422613 292.57731129 660.48233825 292.61237144 666.14086914 C292.64426654 671.4534836 292.64256568 676.76503726 292.61492729 682.07766533 C292.61046455 684.02636172 292.61795471 685.97512763 292.63827133 687.92372322 C292.66413692 690.58458936 292.64683843 693.24182348 292.61869812 695.90258789 C292.63635953 696.67320557 292.65402094 697.44382324 292.67221755 698.23779297 C292.60116597 701.34512024 292.25987965 703.68476277 290.27430308 706.12930107 C284.45662 711.36706555 279.59945606 711.45893406 271.94238281 711.42602539 C271.05422379 711.42617142 270.16606476 711.42631744 269.25099182 711.4264679 C266.31834462 711.4257718 263.3857611 711.41799357 260.453125 711.41015625 C258.4185998 711.40829099 256.38407415 711.4068676 254.34954834 711.40586853 C248.99675251 711.40205184 243.64398384 711.39222876 238.29119873 711.38116455 C232.82825081 711.37093222 227.36529849 711.366367 221.90234375 711.36132812 C211.1848839 711.35060576 200.46744421 711.33353948 189.75 711.3125 C188.57922529 708.97095057 188.62912101 707.61634514 188.63647461 705.00794983 C188.6365451 704.10395447 188.6366156 703.19995911 188.63668823 702.26856995 C188.64185455 701.27381149 188.64702087 700.27905304 188.65234375 699.25415039 C188.65380402 698.20838837 188.65526428 697.16262634 188.6567688 696.08517456 C188.66058263 693.807079 188.66670735 691.52898643 188.67483521 689.25090218 C188.68757326 685.6393843 188.69410888 682.02790308 188.69897461 678.41636658 C188.71236621 669.43738934 188.73645986 660.45844647 188.76037598 651.47949219 C188.78016073 643.90836721 188.79578581 636.33725558 188.80593872 628.76611137 C188.81239209 625.21946202 188.82490574 621.67286747 188.83764648 618.12623596 C188.84128284 615.92929125 188.84463409 613.73234604 188.84765625 611.53540039 C188.85282257 610.55886002 188.85798889 609.58231964 188.86331177 608.57618713 C188.97775448 595.90857126 188.97775448 595.90857126 185.89453125 583.76171875 C185.52231445 582.82827637 185.15009766 581.89483398 184.76660156 580.93310547 C184.36924805 579.96518066 183.97189453 578.99725586 183.5625 578 C177.22842294 561.74789347 172.95595655 545.63080152 170 528.4375 C169.80116211 527.2932959 169.60232422 526.1490918 169.39746094 524.97021484 C166.21739599 505.28163091 165.43397927 485.52986859 165.54418945 465.61474609 C165.56282213 462.12720647 165.56469562 458.63992873 165.56445312 455.15234375 C165.56935741 452.91145604 165.5751809 450.67057011 165.58203125 448.4296875 C165.58314407 447.398508 165.5842569 446.36732849 165.58540344 445.30490112 C165.61702264 440.53137551 165.75350468 436.00522261 166.75 431.3125 C165.80382812 431.08175781 164.85765625 430.85101563 163.8828125 430.61328125 C155.40894482 428.52867296 146.98792133 426.31153894 138.60400391 423.88793945 C135.56054703 423.02153655 132.93159791 422.3125 129.75 422.3125 C129.193125 423.32828125 128.63625 424.3440625 128.0625 425.390625 C118.55121432 442.60842622 107.68816236 458.33730729 94.1953125 472.65625 C91.74291901 475.25495843 91.74291901 475.25495843 89.65234375 477.95703125 C87.93935351 480.0780438 86.26716122 481.75272524 84.1875 483.5 C81.87748829 485.4637211 79.61686245 487.43894722 77.41796875 489.52734375 C58.58075692 507.38073806 25.93129093 532.6463709 -0.4765625 535.68359375 C-5.41248213 535.19817722 -9.17933191 533.49048311 -13.625 531.375 C-14.49987061 530.96822021 -15.37474121 530.56144043 -16.27612305 530.14233398 C-35.41815744 521.14583778 -52.76087656 510.56223084 -69.25 497.3125 C-70.26191406 496.50683594 -71.27382812 495.70117188 -72.31640625 494.87109375 C-86.88348903 483.04221891 -100.30325663 469.5698127 -111.25 454.3125 C-111.7042334 453.68666016 -112.1584668 453.06082031 -112.62646484 452.41601562 C-119.58720909 442.77031005 -125.57772486 432.75822135 -131.25 422.3125 C-132.77923096 422.72145508 -132.77923096 422.72145508 -134.33935547 423.13867188 C-138.11440799 424.14751774 -141.89032029 425.1531118 -145.66650391 426.15771484 C-147.30215799 426.59334784 -148.93757612 427.02986776 -150.57275391 427.46728516 C-152.92028633 428.09509704 -155.26864297 428.71973648 -157.6171875 429.34375 C-158.71726639 429.63904602 -158.71726639 429.63904602 -159.83956909 429.94030762 C-165.02225659 431.3125 -165.02225659 431.3125 -167.25 431.3125 C-167.14171875 432.86130859 -167.14171875 432.86130859 -167.03125 434.44140625 C-163.87194319 482.65029575 -164.83955144 542.58120099 -187.78421021 586.23118591 C-189.98777865 591.39390504 -189.68954556 596.68549493 -189.68237305 602.21459961 C-189.6925647 603.39580383 -189.70275635 604.57700806 -189.71325684 605.79400635 C-189.73818156 609.01462802 -189.75009569 612.23497544 -189.75611091 615.45567775 C-189.76552438 618.82831546 -189.79173003 622.20082282 -189.81611633 625.57337952 C-189.85970362 631.95153612 -189.88829815 638.3296673 -189.91143972 644.70792729 C-189.93853322 651.97283929 -189.98244205 659.23761965 -190.02772844 666.50243747 C-190.12046328 681.43905392 -190.19219493 696.37570444 -190.25 711.3125 C-201.99399323 711.38207386 -213.73793725 711.43534889 -225.48209476 711.46793652 C-230.93564711 711.48357857 -236.38905822 711.50479037 -241.8425293 711.53881836 C-247.10746584 711.5714636 -252.37226671 711.589364 -257.63729668 711.59713173 C-259.64390638 711.60266594 -261.65050883 711.61347292 -263.65706062 711.62969017 C-266.47213798 711.65153293 -269.28665789 711.65446404 -272.10180664 711.65307617 C-273.34043205 711.66925491 -273.34043205 711.66925491 -274.6040802 711.6857605 C-280.45009326 711.65466468 -285.4442493 710.78483189 -289.9921875 706.77734375 C-293.67521582 701.81160557 -294.39873389 699.10038116 -294.39717102 693.03140259 C-294.40084771 692.27201366 -294.4045244 691.51262473 -294.4083125 690.73022401 C-294.41937432 688.17121682 -294.42319763 685.61225021 -294.42700195 683.05322266 C-294.43326546 681.2233314 -294.43991216 679.39344143 -294.44691467 677.56355286 C-294.46799693 671.53456514 -294.47833107 665.50557709 -294.48828125 659.4765625 C-294.49232933 657.39741375 -294.49644627 655.31826514 -294.50063133 653.23911667 C-294.51970378 643.45630978 -294.53392214 633.67351046 -294.5422433 623.89068854 C-294.55197923 612.63165839 -294.57819416 601.37282677 -294.61874419 590.11386645 C-294.64905274 581.39596197 -294.66372665 572.67811383 -294.66702431 563.96015775 C-294.66936099 558.76268235 -294.67813709 553.56541846 -294.70348549 548.36800003 C-294.72702551 543.46121171 -294.73089701 538.55477015 -294.72072411 533.64793968 C-294.72023462 531.86316324 -294.72637778 530.07836822 -294.74028015 528.29364586 C-294.9543586 499.13778865 -286.58266415 473.23974845 -266.046875 452.11328125 C-265.12390625 451.18902344 -264.2009375 450.26476562 -263.25 449.3125 C-262.40953125 448.46042969 -261.5690625 447.60835938 -260.703125 446.73046875 C-225.65655582 413.01142113 -172.24800321 400.75413828 -126.73193359 388.38500977 C-125.37348579 388.01320839 -125.37348579 388.01320839 -123.9875946 387.63389587 C-122.28761621 387.16898604 -120.58652103 386.70813209 -118.8841095 386.25221252 C-107.13235889 383.03125434 -99.89102287 378.66170509 -93.51171875 368.0703125 C-89.48772139 359.27482601 -88.06799916 347.90589799 -89.25 338.3125 C-91.14316573 334.11100062 -93.9669898 331.48795448 -97.25 328.3125 C-99.09062432 326.17896964 -100.82935332 323.97127879 -102.5625 321.75 C-103.02470947 321.1629126 -103.48691895 320.5758252 -103.96313477 319.97094727 C-116.07580441 304.38799257 -124.76018055 287.38491251 -132.54956055 269.33813477 C-134.97858228 263.74285635 -137.15336904 258.90638456 -142 255 C-154.92263381 243.97079239 -161.34182855 230.13453782 -163.25 213.3125 C-164.21871128 195.21271952 -164.04913307 177.72903225 -153.25 162.3125 C-151.56824443 160.77364642 -149.88033143 159.24150478 -148.1875 157.71484375 C-141.16642396 150.08702386 -141.36919915 141.58338846 -140.875 131.625 C-140.65873302 128.16117772 -140.41744811 124.69957469 -140.1640625 121.23828125 C-140.10420166 120.39571777 -140.04434082 119.5531543 -139.98266602 118.68505859 C-139.08481425 107.47333871 -136.19813681 96.61824565 -132 86.1875 C-131.55394409 85.06649902 -131.55394409 85.06649902 -131.09887695 83.92285156 C-118.26585173 52.61627767 -92.05367884 23.91542495 -60.94238281 10.31982422 C-55.25121559 7.96057279 -49.50714975 5.99031335 -43.5625 4.375 C-42.53334473 4.09390381 -42.53334473 4.09390381 -41.48339844 3.80712891 C-27.92560657 0.4692018 -13.89588373 -0.07008038 0 0 Z M-74.25 54.3125 C-75.00925781 54.92738281 -75.76851562 55.54226562 -76.55078125 56.17578125 C-99.69140512 75.47961774 -108.696827 105.76486053 -111.5 134.6875 C-112.52936302 146.53205247 -112.88627228 158.43220624 -113.25 170.3125 C-113.8694751 170.45727783 -114.4889502 170.60205566 -115.12719727 170.7512207 C-121.60978775 172.46524894 -126.47099417 176.97743295 -130.25 182.3125 C-135.59087075 192.72719796 -134.52146435 208.59981249 -131.27734375 219.6328125 C-127.89767618 228.44821917 -122.37960357 233.66149067 -114.25 238.3125 C-113.35023438 238.60511719 -112.45046875 238.89773437 -111.5234375 239.19921875 C-109.25 240.3125 -109.25 240.3125 -108.38671875 242.4296875 C-108.23847656 243.33976563 -108.09023437 244.24984375 -107.9375 245.1875 C-102.40074815 271.09825444 -87.66167022 294.64077794 -69.25 313.3125 C-68.39921875 314.17617188 -67.5484375 315.03984375 -66.671875 315.9296875 C-46.85549965 334.9747668 -22.62194292 343.87989095 4.58203125 343.45703125 C28.42516858 342.79487142 49.68990883 330.20324055 66.75 314.3125 C67.69359375 313.45011719 68.6371875 312.58773438 69.609375 311.69921875 C86.51955606 295.5772241 97.31014878 275.68766995 104.125 253.5 C108.24761564 240.3102781 108.24761564 240.3102781 115.4375 236.125 C117.53642989 235.17583357 119.63995317 234.23668938 121.75 233.3125 C127.83833496 228.28198385 131.02519935 221.05730336 132.5 213.4375 C132.61103485 212.06445932 132.69234015 210.68881566 132.75 209.3125 C132.78996094 208.49136719 132.82992188 207.67023438 132.87109375 206.82421875 C133.11793085 196.79101681 132.79270813 186.54939015 126.60546875 178.25390625 C122.92070739 174.39848226 118.49541557 171.68520779 113.75 169.3125 C113.33157378 166.20413591 113.03988538 163.16341651 112.8203125 160.0390625 C112.66286038 158.07811697 112.5053046 156.11717976 112.34765625 154.15625 C112.11155633 151.07677016 111.87941802 147.9970422 111.65087891 144.91699219 C109.45628525 115.79221127 104.20565465 88.16108338 84.75 65.3125 C84.13511719 64.56484375 83.52023437 63.8171875 82.88671875 63.046875 C67.39072636 44.78706834 45.51054247 34.79947545 21.89941406 32.52197266 C15.02687289 32.06486876 8.13496696 32.1147037 1.25 32.125 C0.04446472 32.12640488 0.04446472 32.12640488 -1.1854248 32.12783813 C-28.95005801 32.19814676 -52.45898549 35.44155444 -74.25 54.3125 Z M-60.25 358.3125 C-60.49234375 359.29089844 -60.7346875 360.26929688 -60.984375 361.27734375 C-65.9901558 381.05788495 -74.69832351 396.98757374 -92.65234375 407.87109375 C-95.79016361 409.61222988 -98.89482829 411.04499069 -102.25 412.3125 C-95.02215146 431.59868991 -80.56994438 447.9233378 -66.25 462.3125 C-65.72325684 462.84327148 -65.19651367 463.37404297 -64.65380859 463.92089844 C-51.90852355 476.59785493 -37.16017624 486.92908364 -21.25732422 495.25537109 C-19.13822811 496.37136309 -17.04070261 497.52303209 -14.94140625 498.67578125 C-13.52450272 499.43168758 -12.10656395 500.18565725 -10.6875 500.9375 C-10.04474121 501.29303955 -9.40198242 501.6485791 -8.73974609 502.01489258 C-4.13417385 504.38507145 -1.2283084 504.63486317 3.75 503.3125 C6.32651016 502.22297251 8.72467957 501.11060646 11.1875 499.8125 C12.22293945 499.27737793 12.22293945 499.27737793 13.27929688 498.73144531 C15.4431001 497.60442359 17.59672107 496.45947763 19.75 495.3125 C20.42305176 494.96123047 21.09610352 494.60996094 21.78955078 494.24804688 C36.40522582 486.59511206 49.25088417 477.04433286 61.19921875 465.6875 C63.75 463.3125 63.75 463.3125 66.390625 461.20703125 C70.00807987 458.30228686 72.78850032 454.86954806 75.75 451.3125 C76.398479 450.54848877 76.398479 450.54848877 77.06005859 449.76904297 C86.78980524 438.26660271 95.19773807 425.91112886 101.75 412.3125 C100.85539063 411.91160156 99.96078125 411.51070313 99.0390625 411.09765625 C90.73020443 407.2429363 84.19692976 402.9508043 77.75 396.3125 C77.18925781 395.77238281 76.62851562 395.23226562 76.05078125 394.67578125 C66.79657307 385.0329449 62.80275608 371.15155619 60.75 358.3125 C59.62207031 358.83199219 58.49414062 359.35148437 57.33203125 359.88671875 C23.38178263 375.08554621 -13.49612691 376.91535715 -48.453125 363.875 C-52.51837627 362.27444034 -56.36848993 360.31363408 -60.25 358.3125 Z M194.75 440.3125 C194.67244852 447.68751089 194.62078886 455.06241285 194.58520508 462.43774414 C194.5703347 464.93452887 194.55003237 467.43128855 194.52368164 469.92797852 C194.30259043 491.45185802 195.48804343 512.65877778 200.375 533.6875 C200.74588745 535.325979 200.74588745 535.325979 201.12426758 536.99755859 C203.87934348 548.65448002 207.68164714 559.95875003 211.6784668 571.24072266 C212.03207275 572.25440918 212.38567871 573.2680957 212.75 574.3125 C212.99607813 574.94282796 213.24215626 575.57315592 213.4956913 576.22258472 C215.67020874 582.09329198 216.19227339 587.28628908 216.18237305 593.51391602 C216.1925647 594.49058731 216.20275635 595.46725861 216.21325684 596.473526 C216.24322179 599.67121236 216.25262756 602.86859834 216.26171875 606.06640625 C216.27857765 608.29557783 216.29672951 610.52473997 216.31611633 612.75389099 C216.3634907 618.59812471 216.39338136 624.44232014 216.41955566 630.28668213 C216.45468357 637.31118731 216.51166051 644.33554557 216.56494904 651.35993195 C216.64331551 662.01076899 216.69403308 672.66141565 216.75 683.3125 C232.92 683.3125 249.09 683.3125 265.75 683.3125 C265.81788549 661.81473294 265.87307955 640.31705351 265.90543652 618.81920624 C265.92086394 608.83597458 265.94187402 598.85281456 265.97631836 588.86962891 C266.00634762 580.16189189 266.02560493 571.45420679 266.03226548 562.74641943 C266.03615496 558.14151419 266.04520842 553.53675739 266.06719017 548.93190002 C266.08776976 544.58496684 266.09379112 540.23824124 266.08932304 535.89126396 C266.09013876 534.30799158 266.09597517 532.7247112 266.10761642 531.1414814 C266.27916749 506.57548164 260.02466234 486.38195618 243.0625 468.1875 C229.41909188 455.28876133 212.24000449 446.74220519 194.75 440.3125 Z M-241.25 467.3125 C-242.05179688 468.03179687 -242.85359375 468.75109375 -243.6796875 469.4921875 C-249.31850275 474.82722819 -253.41080825 480.58669792 -257.25 487.3125 C-257.71277344 488.07949219 -258.17554688 488.84648437 -258.65234375 489.63671875 C-270.92198887 511.60273996 -267.39440623 540.33932582 -267.35139394 564.62888384 C-267.34506949 568.81283941 -267.34454951 572.996796 -267.34336853 577.18075562 C-267.34028167 585.07438204 -267.33210458 592.96799433 -267.32201904 600.86161458 C-267.31077494 609.86064964 -267.30532671 618.85968543 -267.30032361 627.85872579 C-267.28991924 646.34332679 -267.27160735 664.82790846 -267.25 683.3125 C-251.08 683.3125 -234.91 683.3125 -218.25 683.3125 C-218.31703125 676.58359375 -218.3840625 669.8546875 -218.453125 662.921875 C-218.46889642 658.57401525 -218.48101211 654.22672103 -218.48046875 649.87890625 C-218.47994475 643.02707047 -218.49055995 636.17698451 -218.58251953 629.32568359 C-218.93972955 601.42731125 -217.3158072 577.64267543 -206.59832764 551.70765686 C-197.54068524 528.90005737 -195.02797106 501.75718205 -195.15234375 477.421875 C-195.1537587 476.35124817 -195.15517365 475.28062134 -195.15663147 474.17755127 C-195.16216519 470.80583734 -195.17470466 467.43419337 -195.1875 464.0625 C-195.19252359 461.75651139 -195.19708498 459.45052171 -195.20117188 457.14453125 C-195.21211278 451.53383087 -195.22878318 445.92317044 -195.25 440.3125 C-209.1943033 440.3125 -231.40632844 458.45628138 -241.25 467.3125 Z " fill="#F4F4F4" transform="translate(298.25,0.6875)"/>
<path d="M0 0 C17.27922395 13.80493603 31.26311419 34.82852834 34.31152344 57.08837891 C36.99569936 84.19629063 32.13554921 109.34958781 14.86669922 130.83251953 C0.475497 148.15398498 -19.27880375 159.57539453 -41.45703125 163.42578125 C-42.15828125 163.55597656 -42.85953125 163.68617188 -43.58203125 163.8203125 C-67.27497305 167.52233466 -92.2325274 160.37549807 -111.45703125 146.42578125 C-115.74086789 143.0410673 -119.62255702 139.30556685 -123.45703125 135.42578125 C-124.19566406 134.69746094 -124.93429688 133.96914063 -125.6953125 133.21875 C-141.99743765 116.15691417 -149.08518106 91.84769848 -148.66796875 68.70703125 C-147.74719197 43.6528087 -135.75865913 20.82598725 -117.70703125 3.73828125 C-84.54984324 -24.99794836 -34.81376547 -26.6118281 0 0 Z M-78.01953125 6.05078125 C-79.21811768 6.45031006 -79.21811768 6.45031006 -80.44091797 6.85791016 C-86.87631752 9.07580376 -92.66280582 11.82672493 -98.45703125 15.42578125 C-98.45703125 19.1596804 -97.38340668 20.26293043 -95.26953125 23.30078125 C-87.19176148 35.80829573 -84.89928749 48.97690215 -82.45703125 63.42578125 C-76.84703125 63.42578125 -71.23703125 63.42578125 -65.45703125 63.42578125 C-65.45703125 43.62578125 -65.45703125 23.82578125 -65.45703125 3.42578125 C-70.13712648 3.42578125 -73.62661139 4.5743904 -78.01953125 6.05078125 Z M-47.45703125 3.42578125 C-47.45703125 23.22578125 -47.45703125 43.02578125 -47.45703125 63.42578125 C-41.84703125 63.42578125 -36.23703125 63.42578125 -30.45703125 63.42578125 C-30.29847656 62.21664062 -30.13992188 61.0075 -29.9765625 59.76171875 C-27.87097324 44.61886739 -24.38748674 32.13537156 -15.45703125 19.42578125 C-14.79703125 18.43578125 -14.13703125 17.44578125 -13.45703125 16.42578125 C-23.30122675 10.14225221 -35.43730588 3.42578125 -47.45703125 3.42578125 Z M-111.45703125 28.42578125 C-118.26263331 39.68964371 -123.79776528 50.15165348 -125.45703125 63.42578125 C-117.20703125 63.42578125 -108.95703125 63.42578125 -100.45703125 63.42578125 C-101.26624249 52.75147102 -101.26624249 52.75147102 -104.33203125 43.11328125 C-104.58855469 42.46294922 -104.84507812 41.81261719 -105.109375 41.14257812 C-106.80861839 36.86885291 -108.63294449 32.64739521 -110.45703125 28.42578125 C-110.78703125 28.42578125 -111.11703125 28.42578125 -111.45703125 28.42578125 Z M-2.45703125 29.42578125 C-3.75545466 32.11019615 -5.04585984 34.79800229 -6.33203125 37.48828125 C-6.69683594 38.24044922 -7.06164062 38.99261719 -7.4375 39.76757812 C-11.2722661 47.82058694 -12.54617239 54.3171927 -13.45703125 63.42578125 C-4.87703125 63.42578125 3.70296875 63.42578125 12.54296875 63.42578125 C10.64276851 54.55818013 8.55245587 46.66492408 4.48046875 38.55078125 C3.97 37.52597656 3.97 37.52597656 3.44921875 36.48046875 C1.74625549 33.22032119 0.65729207 31.50199679 -2.45703125 29.42578125 Z M-125.45703125 80.42578125 C-123.98603449 93.66475206 -118.93614115 104.01731973 -112.45703125 115.42578125 C-111.79703125 115.42578125 -111.13703125 115.42578125 -110.45703125 115.42578125 C-109.15350833 112.28473487 -107.86647636 109.13717177 -106.58203125 105.98828125 C-106.03482422 104.67053711 -106.03482422 104.67053711 -105.4765625 103.32617188 C-102.31664992 95.54129634 -100.45703125 88.8669398 -100.45703125 80.42578125 C-108.70703125 80.42578125 -116.95703125 80.42578125 -125.45703125 80.42578125 Z M-82.45703125 80.42578125 C-82.68777344 81.86308594 -82.91851562 83.30039062 -83.15625 84.78125 C-85.54196263 99.09303675 -87.8838474 111.64987928 -97.1015625 123.3046875 C-98.81601866 125.56800503 -98.81601866 125.56800503 -98.45703125 129.42578125 C-88.86225449 137.06141511 -77.21512043 140.07416341 -65.45703125 142.42578125 C-65.45703125 121.96578125 -65.45703125 101.50578125 -65.45703125 80.42578125 C-71.06703125 80.42578125 -76.67703125 80.42578125 -82.45703125 80.42578125 Z M-47.45703125 80.42578125 C-47.45703125 100.88578125 -47.45703125 121.34578125 -47.45703125 142.42578125 C-34.65988006 139.22649345 -24.4720801 135.51732819 -13.45703125 128.42578125 C-13.82054687 127.9153125 -14.1840625 127.40484375 -14.55859375 126.87890625 C-24.6394499 112.30043736 -28.71519171 97.86142256 -30.45703125 80.42578125 C-36.06703125 80.42578125 -41.67703125 80.42578125 -47.45703125 80.42578125 Z M-12.45703125 80.42578125 C-11.87258849 93.72185414 -8.88133366 104.76198631 -2.45703125 116.42578125 C5.25183494 107.33067157 12.54296875 92.70168709 12.54296875 80.42578125 C4.29296875 80.42578125 -3.95703125 80.42578125 -12.45703125 80.42578125 Z " fill="#F3F3F3" transform="translate(354.45703125,570.57421875)"/>
<path d="M0 0 C3.37503669 1.1858237 5.64722731 2.27573689 8 5 C3.77471908 5 2.95481492 4.74375671 0 2 C0 1.34 0 0.68 0 0 Z " fill="#EAEAEA" transform="translate(347,567)"/>
<path d="M0 0 C0.66 0.33 1.32 0.66 2 1 C-1.96 4.465 -1.96 4.465 -6 8 C-6.66 7.34 -7.32 6.68 -8 6 C-5.36 4.02 -2.72 2.04 0 0 Z " fill="#D9D9D9" transform="translate(53,435)"/>
<path d="M0 0 C2.475 0.99 2.475 0.99 5 2 C4.67 3.65 4.34 5.3 4 7 C2.10786631 4.61426621 0.97608217 2.92824652 0 0 Z " fill="#DBDBDB" transform="translate(245,603)"/>
<path d="M0 0 C0.33 0.99 0.66 1.98 1 3 C-2.75 6 -2.75 6 -5 6 C-3.63016497 2.83884224 -3.0109362 2.0072908 0 0 Z " fill="#EAEAEA" transform="translate(211,402)"/>
<path d="" fill="#000000" transform="translate(0,0)"/>
<path d="" fill="#000000" transform="translate(0,0)"/>
<path d="" fill="#000000" transform="translate(0,0)"/>
<path d="" fill="#000000" transform="translate(0,0)"/>
<path d="" fill="#000000" transform="translate(0,0)"/>
<path d="" fill="#000000" transform="translate(0,0)"/>
<path d="" fill="#000000" transform="translate(0,0)"/>
<path d="" fill="#000000" transform="translate(0,0)"/>
<path d="" fill="#000000" transform="translate(0,0)"/>
<path d="" fill="#000000" transform="translate(0,0)"/>
<path d="" fill="#000000" transform="translate(0,0)"/>
<path d="" fill="#000000" transform="translate(0,0)"/>
<path d="" fill="#000000" transform="translate(0,0)"/>
<path d="" fill="#000000" transform="translate(0,0)"/>
<path d="" fill="#000000" transform="translate(0,0)"/>
<path d="" fill="#000000" transform="translate(0,0)"/>
<path d="" fill="#000000" transform="translate(0,0)"/>
<path d="" fill="#000000" transform="translate(0,0)"/>
<path d="" fill="#000000" transform="translate(0,0)"/>
<path d="" fill="#000000" transform="translate(0,0)"/>
<path d="" fill="#000000" transform="translate(0,0)"/>
<path d="" fill="#000000" transform="translate(0,0)"/>
<path d="" fill="#000000" transform="translate(0,0)"/>
<path d="" fill="#000000" transform="translate(0,0)"/>
<path d="" fill="#000000" transform="translate(0,0)"/>
<path d="" fill="#000000" transform="translate(0,0)"/>
<path d="" fill="#000000" transform="translate(0,0)"/>
<path d="" fill="#000000" transform="translate(0,0)"/>
<path d="" fill="#000000" transform="translate(0,0)"/>
<path d="" fill="#000000" transform="translate(0,0)"/>
<path d="" fill="#000000" transform="translate(0,0)"/>
<path d="" fill="#000000" transform="translate(0,0)"/>
<path d="" fill="#000000" transform="translate(0,0)"/>
<path d="" fill="#000000" transform="translate(0,0)"/>
<path d="" fill="#000000" transform="translate(0,0)"/>
<path d="" fill="#000000" transform="translate(0,0)"/>
<path d="" fill="#000000" transform="translate(0,0)"/>
<path d="" fill="#000000" transform="translate(0,0)"/>
<path d="" fill="#000000" transform="translate(0,0)"/>
<path d="" fill="#000000" transform="translate(0,0)"/>
<path d="" fill="#000000" transform="translate(0,0)"/>
</svg>
