<?xml version="1.0" encoding="UTF-8"?>
<svg version="1.1" xmlns="http://www.w3.org/2000/svg" width="609" height="686">
<path d="M0 0 C1.86324688 0.05839882 3.72652856 0.11569793 5.58984375 0.171875 C10.10206324 0.31026715 14.61355295 0.46344358 19.125 0.625 C19.13958252 1.85017334 19.15416504 3.07534668 19.16918945 4.33764648 C19.22750298 8.91703339 19.30473219 13.49594548 19.38745117 18.07495117 C19.4205458 20.05045826 19.44862504 22.02605639 19.47143555 24.00170898 C19.50526756 26.85439572 19.5575957 29.70625965 19.61328125 32.55859375 C19.61967117 33.43084091 19.6260611 34.30308807 19.63264465 35.20176697 C19.77316244 41.1662482 20.99426654 46.07197233 23.125 51.625 C23.44339844 52.61886719 23.76179688 53.61273438 24.08984375 54.63671875 C29.59469919 69.78059817 40.90170069 79.79407336 55.125 86.625 C66.80278611 92.01207395 85.16785209 91.59424243 97.33203125 87.85546875 C111.17873728 81.75517169 122.15200966 72.10184984 129.125 58.625 C129.51558594 57.8721875 129.90617188 57.119375 130.30859375 56.34375 C136.89432497 42.64156929 136.19189444 26.96272172 136.1484375 12.1015625 C136.14674561 10.99466064 136.14505371 9.88775879 136.14331055 8.74731445 C136.1389272 6.03986819 136.13278263 3.33243826 136.125 0.625 C159.96796393 0.60167373 183.81092616 0.58402216 207.65389919 0.57318783 C218.72377846 0.56802429 229.79365066 0.5609805 240.86352539 0.54956055 C250.50831054 0.53961546 260.15309057 0.53314699 269.79788071 0.53091151 C274.90806561 0.5296041 280.01823585 0.52651636 285.12841606 0.51926994 C289.93242559 0.5125125 294.73641433 0.51038247 299.54042816 0.51189232 C301.30898463 0.51161587 303.07754175 0.50960912 304.84609413 0.50579453 C307.24987473 0.50086157 309.65357557 0.50200022 312.05735779 0.50474548 C312.76648848 0.50183264 313.47561918 0.4989198 314.20623869 0.49591869 C319.01087879 0.51087879 319.01087879 0.51087879 320.125 1.625 C320.25956359 3.50870099 320.32871271 5.39713066 320.37109375 7.28515625 C320.40243408 8.46400391 320.43377441 9.64285156 320.46606445 10.85742188 C320.49788818 12.12134766 320.52971191 13.38527344 320.5625 14.6875 C321.20718785 35.18314753 322.42877964 53.60213472 335.125 70.625 C336.74942732 72.00948237 338.41036128 73.35394941 340.125 74.625 C340.99125 75.5840625 340.99125 75.5840625 341.875 76.5625 C345.21451722 79.62372412 349.12545756 81.53976847 353.125 83.625 C353.125 84.285 353.125 84.945 353.125 85.625 C353.84478027 85.7583374 354.56456055 85.8916748 355.30615234 86.02905273 C358.01026121 86.60074247 360.58476368 87.35287122 363.2265625 88.16015625 C369.04707661 89.76006641 374.48477884 90.1275459 380.5 90.0625 C382.00880737 90.04896484 382.00880737 90.04896484 383.5480957 90.03515625 C400.4775441 89.64179755 413.19728957 82.61351342 424.93359375 70.40625 C428.7119913 65.61085062 430.89528417 60.26573805 433.125 54.625 C433.72538711 53.31076679 434.32870468 51.99785944 434.9375 50.6875 C437.2871398 44.62790261 437.25065739 38.72377185 437.1875 32.32421875 C437.18371338 31.44723831 437.17992676 30.57025787 437.17602539 29.66670227 C437.16386238 26.88191693 437.14521588 24.09723781 437.125 21.3125 C437.09851069 17.62890936 437.07849247 13.94536815 437.0625 10.26171875 C437.05005249 8.98526741 437.05005249 8.98526741 437.03735352 7.68302917 C437.02881618 5.66349283 437.07157367 3.64384758 437.125 1.625 C439.19568437 -0.44568437 443.55327738 0.31840592 446.41015625 0.23828125 C447.68287636 0.19999458 447.68287636 0.19999458 448.98130798 0.16093445 C450.79125551 0.10875338 452.6012848 0.05934807 454.41137695 0.01245117 C457.12439355 -0.06079622 459.83639798 -0.15197911 462.54882812 -0.24414062 C482.61655044 -0.835456 502.084811 0.02379441 517.67675781 14.16601562 C521.58981789 18.10810042 524.44605437 22.7949798 527.125 27.625 C527.64452026 28.49486502 528.16404051 29.36473005 528.69930381 30.26095462 C530.47721716 34.45608485 530.55032503 37.80674876 530.52207661 42.3091011 C530.5285341 43.17507876 530.5349916 44.04105642 530.54164478 44.93327582 C530.55965117 47.84327498 530.55630349 50.75285539 530.55305481 53.66290283 C530.56152226 55.76715588 530.57127449 57.87140408 530.58220309 59.97564578 C530.60836172 65.76496221 530.61565845 71.55417314 530.61978734 77.34354162 C530.62739253 83.5851813 530.6520656 89.82675776 530.67427063 96.06835938 C530.72168782 110.43376821 530.74351263 124.79914699 530.7611152 139.16461626 C530.76999863 146.2676805 530.78242601 153.37073727 530.79519048 160.47379543 C530.83875469 184.80075243 530.8751842 209.1277072 530.88951588 233.45470047 C530.89043389 234.98164806 530.89135335 236.50859566 530.89227424 238.03554325 C530.89295627 239.17136013 530.89295627 239.17136013 530.89365207 240.3301228 C530.89595768 244.16637094 530.89828493 248.00261907 530.90063477 251.83886719 C530.9010937 252.60017567 530.90155263 253.36148414 530.90202547 254.14586258 C530.91716917 278.81302281 530.9724087 303.47986652 531.05157144 328.14689887 C531.13516198 354.24146639 531.18221918 380.33585142 531.18789595 406.43055606 C531.18865636 409.29825518 531.18956677 412.16595422 531.190588 415.03365326 C531.19082273 415.73973369 531.19105746 416.44581412 531.1912993 417.17329093 C531.19592301 428.51166429 531.23356177 439.84969524 531.28320395 451.18795059 C531.33232407 462.59810341 531.3432399 474.00771049 531.31855337 485.4179875 C531.30621848 491.59369705 531.3098274 497.76827685 531.3574295 503.94384003 C531.40069383 509.60748826 531.39702193 515.26917327 531.35735079 520.93282995 C531.35108548 522.97200929 531.36142318 525.01132867 531.39086816 527.05030504 C531.62135241 544.09228226 526.86668689 556.78788718 515.125 569.3125 C513.49219682 570.78835155 511.82653008 572.22894147 510.125 573.625 C509.35800781 574.26566406 508.59101562 574.90632812 507.80078125 575.56640625 C500.90959592 580.84015634 493.23131692 583.71573293 485.125 586.625 C484.10921875 586.98980469 483.0934375 587.35460937 482.046875 587.73046875 C476.32040429 589.48362623 470.78096078 589.76971803 464.82739735 589.75363445 C464.00322023 589.75538749 463.17904312 589.75714053 462.32989094 589.75894669 C459.56226179 589.76360653 456.79468518 589.76114121 454.02705383 589.75871277 C452.02506171 589.76058075 450.02306995 589.7628814 448.02107877 589.76557809 C442.51470259 589.77170415 437.00834159 589.77156155 431.50196278 589.77038372 C425.56519468 589.77017991 419.62843148 589.77569656 413.69166565 589.78044128 C402.05812018 589.788753 390.4245785 589.79150932 378.7910305 589.79205366 C369.33522127 589.79251321 359.87941367 589.7945716 350.42360497 589.79775429 C347.70167881 589.79865184 344.97975266 589.79954165 342.25782651 589.80042917 C341.24279953 589.80076074 341.24279953 589.80076074 340.20726695 589.80109901 C321.17236194 589.80725351 302.13745751 589.81119955 283.10255146 589.81075573 C282.38485487 589.81074015 281.66715829 589.81072457 280.92771332 589.81070852 C277.29014291 589.81062541 273.65257251 589.81052637 270.01500211 589.81042381 C269.29257064 589.81040387 268.57013917 589.81038392 267.82581584 589.81036337 C266.36488262 589.81032294 264.9039494 589.81028114 263.44301619 589.81023798 C240.71761963 589.80962534 217.99223799 589.81712955 195.2668457 589.83081055 C169.73321805 589.84617582 144.19960021 589.85477649 118.66596764 589.85384732 C115.94246972 589.85377269 113.21897179 589.85372399 110.49547386 589.85369301 C109.48958814 589.85367553 109.48958814 589.85367553 108.4633815 589.85365769 C98.34553511 589.85362884 88.22770046 589.85894449 78.10985756 589.86702538 C66.59920338 589.87612572 55.08857365 589.87830947 43.57791743 589.87151595 C37.70524814 589.86824831 31.83262578 589.86820292 25.95996094 589.8768692 C20.58165018 589.88472431 15.20342366 589.88331282 9.82511499 589.87458507 C7.8816387 589.8730479 5.93815615 589.8748744 3.99468724 589.88044515 C-9.51666352 589.91660224 -21.39689025 589.32927874 -33.875 583.625 C-35.33099609 582.9753125 -35.33099609 582.9753125 -36.81640625 582.3125 C-53.42049675 574.50878952 -64.12512241 562.6407686 -70.875 545.625 C-71.20371094 544.820625 -71.53242187 544.01625 -71.87109375 543.1875 C-76.20381659 531.57829047 -75.0218443 518.39452859 -75.01544189 506.19825745 C-75.01802871 504.22153619 -75.02104275 502.24481545 -75.0244453 500.26809543 C-75.03248078 494.85475916 -75.03430293 489.44143618 -75.03504276 484.02809465 C-75.03689925 478.18273782 -75.04444935 472.33738779 -75.05117798 466.49203491 C-75.06473522 453.72162763 -75.07078137 440.95122349 -75.07518864 428.18081021 C-75.07795433 420.20501657 -75.08219217 412.22922414 -75.08669281 404.25343132 C-75.09893528 382.1628773 -75.10921708 360.07232404 -75.1125679 337.9817667 C-75.11278953 336.55491749 -75.11301131 335.12806829 -75.11323325 333.70121908 C-75.11345389 332.27101153 -75.11367437 330.84080398 -75.1138947 329.41059643 C-75.11433724 326.54155322 -75.11478436 323.67251001 -75.11523438 320.8034668 C-75.11534377 320.092118 -75.11545316 319.38076921 -75.11556586 318.6478644 C-75.11919798 295.5728741 -75.13512724 272.49791519 -75.15842474 249.42293692 C-75.18303151 225.00644748 -75.19674104 200.58997598 -75.19793582 176.17347378 C-75.19878648 162.87109748 -75.20460094 149.56875558 -75.22275543 136.26638985 C-75.23815473 124.94325855 -75.24327769 113.62018114 -75.23501733 102.29704136 C-75.23111085 96.52140271 -75.23204063 90.74587257 -75.24607468 84.97024727 C-75.25881267 79.67963569 -75.25761685 74.38921419 -75.24548396 69.09860288 C-75.24352687 67.18823102 -75.24660596 65.2778457 -75.25532833 63.36749274 C-75.33806262 44.01697767 -72.03227339 29.40331019 -58.25390625 14.87890625 C-41.67727099 -0.82670712 -21.47454837 -0.7761422 0 0 Z M-30.875 152.625 C-31.17937576 155.27797635 -31.17937576 155.27797635 -31.12668228 158.43697453 C-31.13189778 159.68246195 -31.13711327 160.92794937 -31.14248681 162.21117884 C-31.13816198 163.60612359 -31.13364864 165.00106776 -31.12896729 166.39601135 C-31.13126967 167.86800333 -31.13444469 169.33999416 -31.13842177 170.81198257 C-31.1468097 174.87188275 -31.14262641 178.93168952 -31.13644934 182.99159014 C-31.13194183 187.36464438 -31.13890031 191.73768204 -31.14440918 196.11073303 C-31.15332465 204.68543225 -31.15137117 213.26009654 -31.1455839 221.83479715 C-31.1410738 228.8050231 -31.14045168 235.77523924 -31.14263153 242.74546623 C-31.142938 243.73617607 -31.14324446 244.72688591 -31.14356022 245.74761726 C-31.14419965 247.76008861 -31.14484808 249.77255996 -31.1455054 251.78503131 C-31.15121553 270.67982119 -31.14464119 289.5745917 -31.13390467 308.4693784 C-31.1249782 324.68019754 -31.12651241 340.89098803 -31.13574219 357.10180664 C-31.14644944 375.91645799 -31.15065595 394.7310923 -31.14451766 413.54574627 C-31.14388056 415.55310531 -31.14325182 417.56046436 -31.14263153 419.56782341 C-31.14232298 420.5555185 -31.14201443 421.54321359 -31.14169653 422.56083884 C-31.13997023 429.51870326 -31.14288349 436.47655688 -31.14759064 443.43441963 C-31.15320494 451.92005991 -31.15167185 460.4056632 -31.14102915 468.89129926 C-31.13577836 473.22044345 -31.13370547 477.54952602 -31.14032745 481.87866974 C-31.14630187 485.84456028 -31.14298716 489.81033225 -31.13237235 493.77621209 C-31.13014452 495.20833407 -31.1312607 496.64046614 -31.13612393 498.0725816 C-31.18429065 513.43985046 -28.60697254 524.16789418 -17.875 535.625 C-8.39536042 543.56419815 0.45952676 546.78773529 12.8135252 546.75642776 C13.57185574 546.7584804 14.33018628 546.76053303 15.11149654 546.76264787 C17.65513253 546.76830686 20.19871418 546.76686198 22.74235535 546.76544189 C24.58348045 546.76802616 26.424605 546.77103949 28.26572877 546.7744453 C33.32744223 546.78251129 38.3891415 546.78430464 43.45086062 546.78504276 C48.90909812 546.786894 54.36732827 546.79444167 59.82556152 546.80117798 C71.76151356 546.81475871 83.69746223 546.82078554 95.63342071 546.82518864 C103.08604678 546.82795134 110.53867157 546.83218874 117.99129677 546.83669281 C138.62504463 546.84888485 159.25879145 546.85918448 179.89254284 546.8625679 C181.22642599 546.86278953 182.56030914 546.86301132 183.8941923 546.86323325 C185.23126613 546.86345389 186.56833997 546.86367437 187.90541381 546.8638947 C190.58774006 546.86433725 193.27006632 546.86478437 195.95239258 546.86523438 C196.61745159 546.86534377 197.28251061 546.86545316 197.96772293 546.86556586 C219.53106138 546.86919629 241.0943662 546.88511659 262.65769177 546.90842474 C285.46390121 546.93303121 308.27009418 546.94673439 331.07631761 546.94793582 C343.50515827 546.94885261 355.9339549 546.95460601 368.36278343 546.97275543 C378.94569205 546.98815487 389.52854302 546.99327776 400.11146071 546.98501733 C405.51024397 546.98111038 410.90891115 546.98204276 416.30768013 546.99607468 C421.25303104 547.00881051 426.19817859 547.00761876 431.14352921 546.99548396 C432.9295384 546.99352644 434.71556197 546.99660795 436.50155094 547.00532833 C452.94811183 547.08052674 465.42685586 544.93232341 477.7421875 533.11328125 C486.51426283 523.26267207 488.72005227 511.97809759 488.72970581 499.05671692 C488.7459246 497.87063493 488.76214339 496.68455293 488.77885365 495.46252906 C488.81873935 492.2288255 488.84131536 488.99559248 488.85546771 485.76169215 C488.87075243 482.99113204 488.9004917 480.22079905 488.93028923 477.45036269 C489.02564998 468.58043776 489.07681456 459.71054336 489.1151737 450.84021145 C489.12482158 448.66522185 489.13552712 446.49024023 489.14661884 444.31525755 C489.24666104 424.56693595 489.26874066 404.81888913 489.26030327 385.07034464 C489.25796829 379.49086844 489.25774775 373.91139527 489.25881577 368.33191872 C489.258969 367.52230046 489.25912223 366.7126822 489.25928011 365.87853006 C489.25959995 364.23196317 489.25992417 362.58539629 489.2602527 360.9388294 C489.26305804 345.75278415 489.25989422 330.56674509 489.25445233 315.38070086 C489.24993584 302.37139198 489.25080896 289.36209196 489.25537109 276.3527832 C489.26071523 261.10707654 489.26283822 245.86137511 489.25975883 230.61566764 C489.25944035 228.99555163 489.25912598 227.37543561 489.25881577 225.7553196 C489.25866149 224.95877271 489.25850721 224.16222583 489.25834826 223.34154117 C489.25748652 217.74224144 489.25893749 212.14294507 489.26129532 206.54364586 C489.26408929 199.76328724 489.26336141 192.9829402 489.25801457 186.20258292 C489.25538026 182.74881131 489.25436875 179.29505909 489.25766373 175.84128761 C489.26037414 172.10781035 489.25699625 168.37438859 489.25198364 164.64091492 C489.25421436 163.5418844 489.25644509 162.44285387 489.25874341 161.3105194 C489.25483178 159.82142175 489.25483178 159.82142175 489.25084114 158.30224133 C489.25059761 157.01039638 489.25059761 157.01039638 489.25034916 155.69245356 C489.25682791 153.56176882 489.25682791 153.56176882 488.125 151.625 C395.07266348 150.75985139 302.02401066 150.45689995 174.06294735 150.43981276 C156.65263118 150.44023301 139.24233574 150.43040635 121.83202564 150.4165589 C103.67283475 150.40223385 85.51365412 150.39528459 67.35445744 150.39615268 C57.26694488 150.39648298 47.17945489 150.39380058 37.09194756 150.38297462 C28.6171173 150.37392822 20.14232023 150.37165062 11.66748726 150.37848405 C7.35850805 150.38176105 3.04959288 150.38175996 -1.25938034 150.3731308 C-5.19229503 150.36533264 -9.12509404 150.36662696 -13.05800568 150.37541493 C-14.48389105 150.37696313 -15.9097848 150.37508474 -17.33566029 150.36955485 C-19.26169832 150.36257306 -21.1877713 150.36893891 -23.11380863 150.37611103 C-24.18597537 150.37589366 -25.25814211 150.37567629 -26.36279875 150.37545234 C-29.04657299 150.37407444 -29.04657299 150.37407444 -30.875 152.625 Z " fill="#F7F7F7" transform="translate(78.875,88.375)"/>
<path d="M0 0 C7.8046457 4.85191118 12.76237951 13.11539681 15.57614136 21.77264404 C16.14270666 24.74991634 16.12736184 27.59479967 16.12939453 30.62597656 C16.13202301 31.61242661 16.13202301 31.61242661 16.13470459 32.61880493 C16.13910309 34.79277188 16.13618808 36.96665721 16.1328125 39.140625 C16.13348708 40.66599544 16.13445839 42.19136577 16.13571167 43.71673584 C16.13718674 46.92119363 16.13504376 50.12562357 16.13037109 53.33007812 C16.12473187 57.3909241 16.12791666 61.45170313 16.13394356 65.51254654 C16.13760425 68.67002847 16.13638471 71.82749527 16.13381577 74.98497772 C16.13315857 76.47894041 16.13393156 77.97290458 16.13629532 79.46686554 C16.14581495 87.18817431 16.03899147 94.89294423 15.62841797 102.60449219 C15.56218231 103.85655457 15.49594666 105.10861694 15.42770386 106.39862061 C14.36918459 115.31163226 10.89345607 124.05575572 4 130 C-3.44567766 135.85309212 -10.30387555 138.38633703 -19.875 138.3125 C-20.92010742 138.31056641 -20.92010742 138.31056641 -21.98632812 138.30859375 C-27.56064312 138.20488556 -31.90794676 137.18230853 -37 135 C-37 134.34 -37 133.68 -37 133 C-37.70125 132.835 -38.4025 132.67 -39.125 132.5 C-43.3500397 130.29563146 -45.38045779 126.89145865 -48 123 C-48.5775 122.195625 -49.155 121.39125 -49.75 120.5625 C-53.37427786 113.13273039 -53.32821215 104.96129144 -53.4140625 96.85546875 C-53.43342865 95.69163162 -53.4527948 94.52779449 -53.4727478 93.32868958 C-53.53212765 89.61503314 -53.57852559 85.9013378 -53.625 82.1875 C-53.66326496 79.76756538 -53.70232134 77.34764314 -53.7421875 74.92773438 C-53.83809223 68.85688296 -53.90482731 62.78612883 -53.96008301 56.71478271 C-54.0010308 52.90407091 -54.06426367 49.0940847 -54.12792969 45.28369141 C-54.15648919 42.78939806 -54.18418844 40.29509467 -54.2109375 37.80078125 C-54.23467438 36.66207077 -54.25841125 35.52336029 -54.28286743 34.35014343 C-54.37224512 21.78039576 -50.99046331 12.7692921 -42.5625 3.40234375 C-31.6210447 -6.76201956 -12.63283178 -6.99728991 0 0 Z " fill="#F7F7F7" transform="translate(477,17)"/>
<path d="M0 0 C7.58111867 6.34080209 12.87477102 13.39960337 14.52734375 23.26953125 C14.80213101 27.6370756 14.78403141 31.9922682 14.7578125 36.3671875 C14.75735428 37.63308212 14.75689606 38.89897675 14.75642395 40.20323181 C14.75340869 42.883754 14.74663857 45.5639287 14.7331543 48.24438477 C14.71313191 52.26648682 14.71264337 56.28839401 14.71289062 60.31054688 C14.69747521 72.25841713 14.59494009 84.20052812 14.140625 96.140625 C14.11050827 97.04305435 14.08039154 97.9454837 14.04936218 98.8752594 C13.51186032 110.9429531 10.68173201 120.21411707 1.85546875 128.8984375 C-6.03905465 135.40410957 -13.31818348 137.83676566 -23.52734375 137.02734375 C-33.9602063 135.41576336 -41.67011325 130.30419391 -48.47265625 122.26953125 C-53.04608738 113.9935793 -54.60662402 104.71655382 -54.68139648 95.39672852 C-54.69118027 94.6186937 -54.70096405 93.84065887 -54.71104431 93.03904724 C-54.74088238 90.47136101 -54.76235909 87.90372679 -54.78125 85.3359375 C-54.78782183 84.45332685 -54.79439365 83.57071621 -54.80116463 82.66135979 C-54.83371776 77.98332191 -54.85817084 73.30530631 -54.87768555 68.62719727 C-54.89543843 64.77952379 -54.93016705 60.9325915 -54.98022461 57.08520508 C-55.04086686 52.41738251 -55.07122146 47.75024226 -55.08085823 43.0820446 C-55.08934399 41.31561265 -55.10798881 39.54919551 -55.13760185 37.78299141 C-55.33158971 25.54784597 -54.57023761 13.24688689 -45.61328125 3.8203125 C-32.08119077 -6.65791432 -15.04423461 -10.52858757 0 0 Z " fill="#F7F7F7" transform="translate(176.47265625,18.73046875)"/>
<path d="M0 0 C12.21 0 24.42 0 37 0 C37.495 5.94 37.495 5.94 38 12 C38.6708144 15.01418388 38.6708144 15.01418388 39.44677734 18.00195312 C40.08421813 20.30416646 40.60021164 22.62010196 41.11328125 24.953125 C43.30787883 34.72315506 45.65447102 43.92775528 50 53 C51.10586754 55.3742085 52.21001364 57.74921953 53.3125 60.125 C53.82425781 61.20007813 54.33601563 62.27515625 54.86328125 63.3828125 C56 66 56 66 56 68 C56.66 68 57.32 68 58 68 C58.32871094 68.72703125 58.65742188 69.4540625 58.99609375 70.203125 C64.33366963 81.48580572 71.9491144 93.34039647 81.6953125 101.40234375 C83 103 83 103 83.46875 105.45703125 C83 108 83 108 81.15625 109.88671875 C75.51643585 113.71018099 75.51643585 113.71018099 73.76708984 114.84814453 C71.9191616 116.0526935 70.09550578 117.28981712 68.26953125 118.52734375 C60.36926877 123.77214703 52.58073086 127.69878892 43.609375 130.76171875 C40.61948539 131.78747092 37.7685525 132.9251168 34.875 134.1875 C25.26367804 138.09057491 14.12309549 140.08284294 3.76879883 140.02612305 C2.8740535 140.02235153 1.97930817 140.01858002 1.05744934 140.01469421 C0.37849106 140.00984512 -0.30046722 140.00499603 -1 140 C-1.02333608 122.0415784 -1.04098267 104.08316072 -1.05181217 86.12472725 C-1.05697362 77.78675963 -1.06401345 69.44880142 -1.07543945 61.11083984 C-1.0853909 53.8454681 -1.09185453 46.58010317 -1.09408849 39.3147248 C-1.09539481 35.46597378 -1.09847573 31.61724225 -1.10573006 27.76849747 C-1.11249752 24.14886254 -1.11461547 20.52925521 -1.11310768 16.90961456 C-1.11351567 14.94190622 -1.1189071 12.97420091 -1.12442017 11.00650024 C-1.1230455 9.84259766 -1.12167084 8.67869507 -1.12025452 7.47952271 C-1.12117631 6.46370684 -1.1220981 5.44789097 -1.12304783 4.4012928 C-1 2 -1 2 0 0 Z " fill="#F7F7F7" transform="translate(320,446)"/>
<path d="M0 0 C1.51815699 0.00015911 3.0363194 0.00585313 4.55444336 0.01586914 C5.35208603 0.01728409 6.1497287 0.01869904 6.97154236 0.02015686 C9.52916146 0.02577223 12.08669429 0.03832727 14.64428711 0.05102539 C16.37410356 0.05603841 18.10392137 0.06060166 19.83374023 0.06469727 C24.08312264 0.07574664 28.33244023 0.09302153 32.58178711 0.11352539 C33.82684953 6.80906487 33.67512849 13.41704323 33.60351562 20.20898438 C33.59390808 21.51698502 33.58430054 22.82498566 33.57440186 24.17262268 C33.54806253 27.74239279 33.51525503 31.31207711 33.48125196 34.88178134 C33.44676774 38.61867223 33.41827963 42.35560882 33.3891449 46.09254456 C33.33312758 53.16137828 33.2717481 60.23015478 33.20842355 67.29892641 C33.13656448 75.34968804 33.0707114 83.40049533 33.00535309 91.45131195 C32.87082895 108.00544289 32.72879398 124.55950049 32.58178711 141.11352539 C30.5349673 140.97262353 28.48847927 140.82689767 26.44213867 140.67919922 C25.30246643 140.59857742 24.16279419 140.51795563 22.98858643 140.43489075 C17.99780636 139.96410757 13.2042183 138.94932758 8.33178711 137.80102539 C7.41655273 137.60057617 6.50131836 137.40012695 5.55834961 137.19360352 C-0.48279773 135.8037954 -5.82415695 133.74939918 -11.41821289 131.11352539 C-13.29099033 130.37866915 -15.1657294 129.64877346 -17.04321289 128.92602539 C-29.67469737 123.67364792 -41.87475337 115.95899312 -51.41821289 106.11352539 C-49.87976926 102.52382359 -47.70309741 100.07514642 -45.04321289 97.23852539 C-41.78897006 93.68325212 -38.95519126 90.22517999 -36.41821289 86.11352539 C-36.00571289 85.51926758 -35.59321289 84.92500977 -35.16821289 84.31274414 C-19.57314634 61.81008018 -11.27364813 38.12355273 -6.38500977 11.4128418 C-6.26140076 10.74221207 -6.13779175 10.07158234 -6.01043701 9.38063049 C-5.67048075 7.52746878 -5.33665622 5.6731853 -5.00317383 3.81884766 C-4.14747945 -0.13856029 -4.20713237 0.13972692 0 0 Z " fill="#F8F8F8" transform="translate(262.418212890625,445.886474609375)"/>
<path d="M0 0 C28.67294246 1.1645873 59.08303061 10.77060371 81 30 C82.74102741 31.95053368 84.36788379 33.95479951 86 36 C85.17757812 36.78761719 84.35515625 37.57523437 83.5078125 38.38671875 C69.65986795 51.82418405 59.34961341 66.05562404 51.45703125 83.796875 C50.3621251 86.20390728 49.21186072 88.5161205 47.98828125 90.85546875 C45.91777082 94.97296666 44.56892896 99.12030298 43.375 103.5625 C43.05535278 104.73051147 43.05535278 104.73051147 42.72924805 105.92211914 C41.10002118 112.10839496 40.12190753 118.20292676 39.40234375 124.5625 C38.83364072 129.42132197 37.92377348 134.19884578 37 139 C29.34298013 139.93757225 21.77233556 140.18296213 14.0625 140.1875 C12.94037109 140.19974609 11.81824219 140.21199219 10.66210938 140.22460938 C9.58896484 140.22654297 8.51582031 140.22847656 7.41015625 140.23046875 C6.44215088 140.23457764 5.47414551 140.23868652 4.47680664 140.24291992 C2 140 2 140 -1 138 C-1.3719368 135.65393925 -1.3719368 135.65393925 -1.36749268 132.65455627 C-1.37306183 131.52023163 -1.37863098 130.38590698 -1.3843689 129.21720886 C-1.37515411 127.96676285 -1.36593933 126.71631683 -1.35644531 125.42797852 C-1.35848969 124.11577332 -1.36053406 122.80356812 -1.36264038 121.45159912 C-1.3677848 117.84614918 -1.35421787 114.24098353 -1.33711338 110.63557935 C-1.32210174 106.86667389 -1.32325196 103.09777251 -1.32244873 99.32884216 C-1.31875318 92.99774306 -1.3037727 86.66675218 -1.28125 80.33569336 C-1.25238965 72.20651925 -1.24202831 64.0774324 -1.2375679 55.94821262 C-1.23358813 48.96510396 -1.22108481 41.9820143 -1.20722103 34.99891925 C-1.20312113 32.75178302 -1.20019591 30.50464746 -1.19742584 28.25750923 C-1.19162425 24.0721104 -1.17694761 19.88678896 -1.16113281 15.70141602 C-1.16001495 14.45299423 -1.15889709 13.20457245 -1.15774536 11.9183197 C-1.15203522 10.78117523 -1.14632507 9.64403076 -1.14044189 8.47242737 C-1.13746723 7.48225396 -1.13449257 6.49208055 -1.13142776 5.47190189 C-1 3 -1 3 0 0 Z " fill="#F7F7F7" transform="translate(320,283)"/>
<path d="M0 0 C0 45.87 0 91.74 0 139 C-11.88 139 -23.76 139 -36 139 C-36.99 133.39 -37.98 127.78 -39 122 C-43.83408991 96.61703944 -53.26190851 74.51079593 -69 54 C-69.54527344 53.2678125 -70.09054688 52.535625 -70.65234375 51.78125 C-74.26745675 46.99388948 -78.03076033 42.9270168 -82.59375 39.01953125 C-84 37 -84 37 -84.05859375 34.00390625 C-82.68589321 30.10867851 -81.08968996 29.18902533 -77.5625 27.125 C-76.57378906 26.52945312 -75.58507812 25.93390625 -74.56640625 25.3203125 C-72 24 -72 24 -70 24 C-70 23.34 -70 22.68 -70 22 C-47.88990327 9.97567014 -25.60364558 0 0 0 Z " fill="#F8F8F8" transform="translate(295,283)"/>
<path d="M0 0 C0.70548981 0.00202423 1.41097961 0.00404846 2.1378479 0.00613403 C3.24756454 0.00350555 3.24756454 0.00350555 4.37969971 0.00082397 C6.83686638 -0.00359453 9.29396168 -0.00065657 11.75112915 0.00271606 C13.45124322 0.00204302 15.1513572 0.001073 16.85147095 -0.00018311 C20.41926996 -0.00166008 23.98704398 0.00049445 27.55484009 0.00515747 C32.13851409 0.01085476 36.72212954 0.00757575 41.30580139 0.00158501 C44.81782476 -0.00202063 48.32983414 -0.00088201 51.84185791 0.0017128 C53.53243008 0.00238206 55.22300351 0.00155367 56.91357422 -0.00076675 C59.27222072 -0.00329332 61.6307711 0.00054735 63.9894104 0.00613403 C64.69490021 0.0041098 65.40039001 0.00208557 66.1272583 0 C70.94936644 0.02126585 70.94936644 0.02126585 72.06362915 1.13552856 C73.07923977 16.87749324 69.11139392 31.77208723 63.06362915 46.13552856 C62.4603479 47.7036731 62.4603479 47.7036731 61.84487915 49.30349731 C57.08625523 61.47335647 50.598593 72.24831736 42.06362915 82.13552856 C41.45776978 82.85095825 40.8519104 83.56638794 40.22769165 84.30349731 C38.85035628 85.92332131 37.45882042 87.53105861 36.06362915 89.13552856 C31.38523524 87.57606393 29.14452465 83.86469583 26.06362915 80.13552856 C25.52737915 79.52064575 24.99112915 78.90576294 24.43862915 78.27224731 C15.19125834 67.17984819 8.10272858 53.60301494 3.06362915 40.13552856 C2.76021606 39.43290894 2.45680298 38.73028931 2.14419556 38.00637817 C-0.66215439 31.40386214 -2.29940851 24.8494321 -3.68637085 17.82302856 C-3.90680054 16.76535278 -4.12723022 15.707677 -4.3543396 14.61795044 C-6.18231167 5.62001341 -6.18231167 5.62001341 -5.93637085 1.13552856 C-4.26574996 -0.53509232 -2.23083259 0.00983814 0 0 Z " fill="#F7F7F7" transform="translate(386.9363708496094,445.8644714355469)"/>
<path d="M0 0 C0.99 0 1.98 0 3 0 C5.015625 2.125 5.015625 2.125 7.25 5 C10.02837884 8.51927987 12.81465084 11.97795936 15.8125 15.3125 C23 23.45276163 23 23.45276163 23 27 C23.66 27 24.32 27 25 27 C30.859375 40.18359375 30.859375 40.18359375 31.93017578 42.61132812 C32.62379364 44.16001756 33.33475542 45.70110022 34.06591797 47.23242188 C36.73211077 52.89918148 38.28748097 58.51816967 39.625 64.625 C40.0324171 66.43001247 40.44124274 68.23470766 40.8515625 70.0390625 C41.13821777 71.31765137 41.13821777 71.31765137 41.43066406 72.62207031 C41.9263669 74.69245868 42.52858257 76.73677131 43.1484375 78.7734375 C44 82 44 82 44 88 C17.93 88 -8.14 88 -35 88 C-33.09545461 55.62272836 -23.35322541 30.74017455 -4 5 C-3.32066406 4.06542969 -2.64132813 3.13085938 -1.94140625 2.16796875 C-0.98041016 1.09482422 -0.98041016 1.09482422 0 0 Z " fill="#F7F7F7" transform="translate(191,334)"/>
<path d="M0 0 C3.17565163 1.70791348 4.66756531 3.75717834 6.76171875 6.6875 C7.15077393 7.22955078 7.5398291 7.77160156 7.94067383 8.33007812 C11.35381656 13.14730378 14.48033359 18.07857755 17.32421875 23.25 C17.82695312 24.16136719 18.3296875 25.07273437 18.84765625 26.01171875 C22.97366797 33.85532986 25.67372753 41.82302294 28.32421875 50.25 C28.6963147 51.30102905 28.6963147 51.30102905 29.07592773 52.37329102 C30.98961879 57.80817362 32.16658295 63.11822434 33.01171875 68.8125 C33.20604492 70.01036133 33.20604492 70.01036133 33.40429688 71.23242188 C34.1843966 76.29687881 34.44745118 81.12705187 34.32421875 86.25 C31.896571 87.46382387 30.37095034 87.37926619 27.65625 87.3828125 C26.63950195 87.38474609 25.62275391 87.38667969 24.57519531 87.38867188 C22.87314941 87.3819043 22.87314941 87.3819043 21.13671875 87.375 C19.95174805 87.37306641 18.76677734 87.37113281 17.54589844 87.36914062 C-2.53075683 87.27949047 -22.60537576 86.72605807 -42.67578125 86.25 C-43.03955448 68.64135464 -38.88720426 52.81971115 -30.67578125 37.25 C-30.09188719 36.00026183 -29.50853447 34.75027055 -28.92578125 33.5 C-23.79833088 23.4662834 -17.79635464 14.88623443 -9.92578125 6.8125 C-9.28793701 6.143396 -8.65009277 5.47429199 -7.99291992 4.78491211 C-3.48390313 0.32550336 -3.48390313 0.32550336 0 0 Z " fill="#F7F7F7" transform="translate(424.67578125,335.75)"/>
<path d="M0 0 C1.0442086 0.00303635 1.0442086 0.00303635 2.10951233 0.00613403 C2.83956985 0.00438171 3.56962738 0.00262939 4.32180786 0.00082397 C6.74650924 -0.00359443 9.17113828 -0.00065661 11.59584045 0.00271606 C13.27353428 0.00204302 14.95122802 0.00107299 16.62892151 -0.00018311 C20.14964219 -0.00166006 23.67033755 0.0004944 27.1910553 0.00515747 C31.71419541 0.01085476 36.23727619 0.00757574 40.76041412 0.00158501 C44.22611441 -0.00202067 47.69180052 -0.00088199 51.15750122 0.0017128 C52.8257447 0.00238205 54.49398945 0.00155371 56.16223145 -0.00076675 C58.48974539 -0.00329339 60.81716193 0.00054744 63.14466858 0.00613403 C63.84080765 0.0041098 64.53694672 0.00208557 65.25418091 0 C70.01282772 0.02126583 70.01282772 0.02126583 71.12709045 1.13552856 C70.68736479 24.38943474 61.21746689 48.25061442 48.12709045 67.13552856 C47.50834045 68.10490356 46.88959045 69.07427856 46.25209045 70.07302856 C41.82692329 76.45047536 37.04740577 83.06097258 31.12709045 88.13552856 C30.13709045 88.13552856 29.14709045 88.13552856 28.12709045 88.13552856 C26.0763092 85.82693481 26.0763092 85.82693481 23.81459045 82.69802856 C23.41433655 82.14526245 23.01408264 81.59249634 22.60169983 81.02297974 C21.43362685 79.40089127 20.28005187 77.76839275 19.12709045 76.13552856 C18.59728577 75.40849731 18.06748108 74.68146606 17.5216217 73.93240356 C8.86722229 61.61745986 3.03898981 48.27741938 -1.29478455 33.93386841 C-1.89241576 31.98240369 -1.89241576 31.98240369 -2.9627533 29.56521606 C-6.12596433 21.12093597 -6.63124709 10.05922157 -5.87290955 1.13552856 C-4.21402216 -0.52335882 -2.21606172 0.00990332 0 0 Z " fill="#F7F7F7" transform="translate(162.87290954589844,445.8644714355469)"/>
<path d="M0 0 C0.70706085 0.00359528 1.4141217 0.00719055 2.14260864 0.01089478 C3.25473473 0.01067574 3.25473473 0.01067574 4.389328 0.01045227 C6.85130696 0.01115152 9.31321119 0.01894442 11.775177 0.02676392 C13.47768614 0.02862806 15.18019582 0.03005198 16.88270569 0.03105164 C21.37245148 0.03487714 25.86216513 0.0447077 30.35189819 0.05575562 C34.92983566 0.06596903 39.50777831 0.07054911 44.08572388 0.07559204 C53.07467032 0.08632994 62.06359287 0.10340675 71.05252075 0.12442017 C70.72252075 0.78442017 70.39252075 1.44442017 70.05252075 2.12442017 C45.63252075 2.12442017 21.21252075 2.12442017 -3.94747925 2.12442017 C-4.27747925 3.11442017 -4.60747925 4.10442017 -4.94747925 5.12442017 C-5.50997925 3.18692017 -5.50997925 3.18692017 -5.94747925 1.12442017 C-4.27411929 -0.54893979 -2.23360016 0.00479121 0 0 Z " fill="#ECECEC" transform="translate(386.9474792480469,445.8755798339844)"/>
<path d="M0 0 C1.81455688 0.07069702 1.81455688 0.07069702 3.66577148 0.14282227 C5.62353516 0.21533203 5.62353516 0.21533203 7.62084961 0.28930664 C9.00952598 0.34583683 10.39819781 0.40247892 11.78686523 0.45922852 C13.17942544 0.51243399 14.5720035 0.56517448 15.96459961 0.61743164 C19.38472504 0.74760943 22.80459448 0.88259032 26.22436523 1.02172852 C26.22436523 1.35172852 26.22436523 1.68172852 26.22436523 2.02172852 C16.98436523 2.02172852 7.74436523 2.02172852 -1.77563477 2.02172852 C-2.10563477 3.01172852 -2.43563477 4.00172852 -2.77563477 5.02172852 C-3.33813477 3.08422852 -3.33813477 3.08422852 -3.77563477 1.02172852 C-2.77563477 0.02172852 -2.77563477 0.02172852 0 0 Z " fill="#D5D5D5" transform="translate(384.775634765625,445.978271484375)"/>
<path d="M0 0 C1.69141656 0.08963062 3.37959602 0.24577676 5.0625 0.4375 C6.44115234 0.59025391 6.44115234 0.59025391 7.84765625 0.74609375 C8.55792969 0.82988281 9.26820313 0.91367187 10 1 C10 1.33 10 1.66 10 2 C7.03 2 4.06 2 1 2 C0.67 2.99 0.34 3.98 0 5 C-0.5625 3.0625 -0.5625 3.0625 -1 1 C-0.67 0.67 -0.34 0.34 0 0 Z " fill="#DBDBDB" transform="translate(382,446)"/>
<path d="" fill="#000000" transform="translate(0,0)"/>
<path d="" fill="#000000" transform="translate(0,0)"/>
<path d="" fill="#000000" transform="translate(0,0)"/>
<path d="" fill="#000000" transform="translate(0,0)"/>
<path d="" fill="#000000" transform="translate(0,0)"/>
<path d="" fill="#000000" transform="translate(0,0)"/>
<path d="" fill="#000000" transform="translate(0,0)"/>
<path d="" fill="#000000" transform="translate(0,0)"/>
<path d="" fill="#000000" transform="translate(0,0)"/>
<path d="" fill="#000000" transform="translate(0,0)"/>
</svg>
