<svg width="1280" height="1061" viewBox="0 0 1280 1061" fill="none" xmlns="http://www.w3.org/2000/svg" xmlns:xlink="http://www.w3.org/1999/xlink">
<rect width="1280" height="1061" fill="#253060"/>
<rect width="321" height="1061" fill="#4859AA"/>
<rect x="635" width="330" height="1061" fill="#2E3B75"/>
<rect x="319" width="316" height="1061" fill="#3B4A90"/>
<rect width="186" height="44" transform="translate(73 82)" fill="white"/>
<line x1="73" y1="125.5" x2="259" y2="125.5" stroke="#FBDE95"/>
<rect width="186" height="44" transform="translate(73 126)" fill="white"/>
<rect width="186" height="44" transform="translate(73 180)" fill="white"/>
<line x1="73" y1="223.5" x2="259" y2="223.5" stroke="#FBDE95"/>
<rect width="186" height="44" transform="translate(73 224)" fill="white"/>
<rect width="186" height="44" transform="translate(73 318)" fill="white"/>
<line x1="73" y1="361.5" x2="259" y2="361.5" stroke="#FBDE95"/>
<rect width="186" height="44" transform="translate(73 362)" fill="white"/>
<rect width="186" height="44" transform="translate(73 416)" fill="white"/>
<line x1="73" y1="459.5" x2="259" y2="459.5" stroke="#FBDE95"/>
<rect width="186" height="44" transform="translate(73 460)" fill="white"/>
<rect width="186" height="44" transform="translate(73 554)" fill="white"/>
<line x1="73" y1="597.5" x2="259" y2="597.5" stroke="#FBDE95"/>
<rect width="186" height="44" transform="translate(73 598)" fill="white"/>
<rect width="186" height="44" transform="translate(73 652)" fill="white"/>
<line x1="73" y1="695.5" x2="259" y2="695.5" stroke="#FBDE95"/>
<rect width="186" height="44" transform="translate(73 696)" fill="white"/>
<rect width="186" height="44" transform="translate(73 790)" fill="white"/>
<line x1="73" y1="833.5" x2="259" y2="833.5" stroke="#FBDE95"/>
<rect width="186" height="44" transform="translate(73 834)" fill="white"/>
<rect width="186" height="44" transform="translate(73 888)" fill="white"/>
<line x1="73" y1="931.5" x2="259" y2="931.5" stroke="#FBDE95"/>
<rect width="186" height="44" transform="translate(73 932)" fill="white"/>
<rect width="186" height="44" transform="translate(389 198)" fill="white"/>
<line x1="389" y1="241.5" x2="575" y2="241.5" stroke="#FBDE95"/>
<rect width="186" height="44" transform="translate(389 242)" fill="white"/>
<rect width="186" height="44" transform="translate(389 296)" fill="white"/>
<line x1="389" y1="339.5" x2="575" y2="339.5" stroke="#FBDE95"/>
<rect width="186" height="44" transform="translate(389 340)" fill="white"/>
<rect width="186" height="44" transform="translate(389 674)" fill="white"/>
<line x1="389" y1="717.5" x2="575" y2="717.5" stroke="#FBDE95"/>
<rect width="186" height="44" transform="translate(389 718)" fill="white"/>
<rect width="186" height="44" transform="translate(389 772)" fill="white"/>
<line x1="389" y1="815.5" x2="575" y2="815.5" stroke="#FBDE95"/>
<rect width="186" height="44" transform="translate(389 816)" fill="white"/>
<rect width="186" height="44" transform="translate(705 436)" fill="white"/>
<line x1="705" y1="479.5" x2="891" y2="479.5" stroke="#FBDE95"/>
<rect width="186" height="44" transform="translate(705 480)" fill="white"/>
<rect width="186" height="44" transform="translate(705 534)" fill="white"/>
<line x1="705" y1="577.5" x2="891" y2="577.5" stroke="#FBDE95"/>
<rect width="186" height="44" transform="translate(705 578)" fill="white"/>
<rect width="186" height="44" transform="translate(1021 485)" fill="white"/>
<line x1="1021" y1="528.5" x2="1207" y2="528.5" stroke="#FBDE95"/>
<rect width="186" height="44" transform="translate(1021 529)" fill="white"/>
<line x1="269" y1="85" x2="269" y2="270" stroke="white" stroke-width="2"/>
<line x1="320" y1="175" x2="320" y2="412" stroke="white" stroke-width="2"/>
<line x1="320" y1="646" x2="320" y2="883" stroke="white" stroke-width="2"/>
<path d="M635 290L635 768" stroke="white" stroke-width="2"/>
<line x1="586" y1="200" x2="586" y2="385" stroke="white" stroke-width="2"/>
<line x1="586" y1="676" x2="586" y2="861" stroke="white" stroke-width="2"/>
<line x1="901" y1="438" x2="901" y2="623" stroke="white" stroke-width="2"/>
<line x1="269" y1="321" x2="269" y2="506" stroke="white" stroke-width="2"/>
<line x1="269" y1="557" x2="269" y2="742" stroke="white" stroke-width="2"/>
<line x1="269" y1="793" x2="269" y2="978" stroke="white" stroke-width="2"/>
<line x1="269" y1="176" x2="319" y2="176" stroke="white" stroke-width="2"/>
<line x1="585" y1="291" x2="635" y2="291" stroke="white" stroke-width="2"/>
<line x1="585" y1="767" x2="635" y2="767" stroke="white" stroke-width="2"/>
<line x1="269" y1="411" x2="319" y2="411" stroke="white" stroke-width="2"/>
<line x1="269" y1="647" x2="319" y2="647" stroke="white" stroke-width="2"/>
<line x1="269" y1="883" x2="319" y2="883" stroke="white" stroke-width="2"/>
<line x1="901" y1="529" x2="1021" y2="529" stroke="white" stroke-width="2"/>
<path d="M635 529H705" stroke="white" stroke-width="2"/>
<line x1="319" y1="767" x2="388" y2="767" stroke="white" stroke-width="2"/>
<line x1="319" y1="291" x2="388" y2="291" stroke="white" stroke-width="2"/>
<rect x="1021" y="810" width="219" height="180" fill="url(#pattern0_15_2)" fill-opacity="0.5"/>
<rect x="113" y="20" width="95" height="39" rx="12" fill="white" fill-opacity="0.9"/>
<path d="M129.006 33.3636V45H126.545V35.6989H126.477L123.812 37.3693V35.1875L126.693 33.3636H129.006ZM136.862 32.8182L133.112 46.75H131.027L134.777 32.8182H136.862ZM142.347 45.1591C141.472 45.1591 140.693 45.017 140.011 44.733C139.333 44.4451 138.801 44.053 138.415 43.5568C138.028 43.0606 137.835 42.4981 137.835 41.8693C137.835 41.3845 137.945 40.9394 138.165 40.5341C138.388 40.125 138.691 39.786 139.074 39.517C139.456 39.2443 139.884 39.0701 140.358 38.9943V38.9148C139.737 38.7898 139.233 38.4886 138.847 38.0114C138.46 37.5303 138.267 36.9716 138.267 36.3352C138.267 35.733 138.443 35.197 138.795 34.7273C139.148 34.2538 139.631 33.8826 140.244 33.6136C140.862 33.3409 141.562 33.2045 142.347 33.2045C143.131 33.2045 143.83 33.3409 144.443 33.6136C145.061 33.8864 145.545 34.2595 145.898 34.733C146.25 35.2027 146.428 35.7367 146.432 36.3352C146.428 36.9754 146.231 37.5341 145.841 38.0114C145.451 38.4886 144.951 38.7898 144.341 38.9148V38.9943C144.807 39.0701 145.229 39.2443 145.608 39.517C145.991 39.786 146.294 40.125 146.517 40.5341C146.744 40.9394 146.86 41.3845 146.864 41.8693C146.86 42.4981 146.665 43.0606 146.278 43.5568C145.892 44.053 145.358 44.4451 144.676 44.733C143.998 45.017 143.222 45.1591 142.347 45.1591ZM142.347 43.3523C142.737 43.3523 143.078 43.2822 143.369 43.142C143.661 42.9981 143.888 42.8011 144.051 42.5511C144.218 42.2973 144.301 42.0057 144.301 41.6761C144.301 41.339 144.216 41.0417 144.045 40.7841C143.875 40.5227 143.644 40.3182 143.352 40.1705C143.061 40.0189 142.725 39.9432 142.347 39.9432C141.972 39.9432 141.636 40.0189 141.341 40.1705C141.045 40.3182 140.813 40.5227 140.642 40.7841C140.475 41.0417 140.392 41.339 140.392 41.6761C140.392 42.0057 140.473 42.2973 140.636 42.5511C140.799 42.8011 141.028 42.9981 141.324 43.142C141.619 43.2822 141.96 43.3523 142.347 43.3523ZM142.347 38.1534C142.672 38.1534 142.962 38.0871 143.216 37.9545C143.47 37.822 143.669 37.6383 143.812 37.4034C143.956 37.1686 144.028 36.8977 144.028 36.5909C144.028 36.2879 143.956 36.0227 143.812 35.7955C143.669 35.5644 143.472 35.3845 143.222 35.2557C142.972 35.1231 142.68 35.0568 142.347 35.0568C142.017 35.0568 141.725 35.1231 141.472 35.2557C141.218 35.3845 141.019 35.5644 140.875 35.7955C140.735 36.0227 140.665 36.2879 140.665 36.5909C140.665 36.8977 140.737 37.1686 140.881 37.4034C141.025 37.6383 141.223 37.822 141.477 37.9545C141.731 38.0871 142.021 38.1534 142.347 38.1534ZM152.355 45V33.3636H160.06V35.392H154.815V38.1648H159.548V40.1932H154.815V45H152.355ZM164.175 33.3636V45H161.714V33.3636H164.175ZM175.932 33.3636V45H173.807L168.744 37.6761H168.659V45H166.199V33.3636H168.358L173.381 40.6818H173.483V33.3636H175.932ZM179.97 45H177.334L181.351 33.3636H184.521L188.533 45H185.896L182.982 36.0227H182.891L179.97 45ZM179.805 40.4261H186.033V42.3466H179.805V40.4261ZM189.933 45V33.3636H192.393V42.9716H197.382V45H189.933Z" fill="#3B4A90"/>
<rect x="429" y="20" width="96" height="39" rx="12" fill="white" fill-opacity="0.9"/>
<path d="M445.006 33.3636V45H442.545V35.6989H442.477L439.812 37.3693V35.1875L442.693 33.3636H445.006ZM452.862 32.8182L449.112 46.75H447.027L450.777 32.8182H452.862ZM453.83 42.9545V41.017L458.688 33.3636H460.358V36.0455H459.369L456.307 40.892V40.983H463.21V42.9545H453.83ZM459.415 45V42.3636L459.46 41.5057V33.3636H461.767V45H459.415ZM468.621 45V33.3636H476.325V35.392H471.081V38.1648H475.814V40.1932H471.081V45H468.621ZM480.44 33.3636V45H477.98V33.3636H480.44ZM492.197 33.3636V45H490.072L485.01 37.6761H484.925V45H482.464V33.3636H484.624L489.646 40.6818H489.749V33.3636H492.197ZM496.236 45H493.599L497.616 33.3636H500.787L504.798 45H502.162L499.247 36.0227H499.156L496.236 45ZM496.071 40.4261H502.298V42.3466H496.071V40.4261ZM506.199 45V33.3636H508.659V42.9716H513.648V45H506.199Z" fill="#3B4A90"/>
<rect x="748" y="20" width="95" height="39" rx="12" fill="white" fill-opacity="0.9"/>
<path d="M764.006 33.3636V45H761.545V35.6989H761.477L758.812 37.3693V35.1875L761.693 33.3636H764.006ZM771.862 32.8182L768.112 46.75H766.027L769.777 32.8182H771.862ZM773.006 45V43.2273L777.148 39.392C777.5 39.0511 777.795 38.7443 778.034 38.4716C778.277 38.1989 778.46 37.9318 778.585 37.6705C778.71 37.4053 778.773 37.1193 778.773 36.8125C778.773 36.4716 778.695 36.178 778.54 35.9318C778.384 35.6818 778.172 35.4905 777.903 35.358C777.634 35.2216 777.33 35.1534 776.989 35.1534C776.633 35.1534 776.322 35.2254 776.057 35.3693C775.792 35.5133 775.587 35.7197 775.443 35.9886C775.299 36.2576 775.227 36.5777 775.227 36.9489H772.892C772.892 36.1875 773.064 35.5265 773.409 34.9659C773.754 34.4053 774.237 33.9716 774.858 33.6648C775.479 33.358 776.195 33.2045 777.006 33.2045C777.839 33.2045 778.564 33.3523 779.182 33.6477C779.803 33.9394 780.286 34.3447 780.631 34.8636C780.975 35.3826 781.148 35.9773 781.148 36.6477C781.148 37.0871 781.061 37.5208 780.886 37.9489C780.716 38.3769 780.411 38.8523 779.972 39.375C779.532 39.8939 778.913 40.517 778.114 41.2443L776.415 42.9091V42.9886H781.301V45H773.006ZM786.855 45V33.3636H794.56V35.392H789.315V38.1648H794.048V40.1932H789.315V45H786.855ZM798.675 33.3636V45H796.214V33.3636H798.675ZM810.432 33.3636V45H808.307L803.244 37.6761H803.159V45H800.699V33.3636H802.858L807.881 40.6818H807.983V33.3636H810.432ZM814.47 45H811.834L815.851 33.3636H819.021L823.033 45H820.396L817.482 36.0227H817.391L814.47 45ZM814.305 40.4261H820.533V42.3466H814.305V40.4261ZM824.433 45V33.3636H826.893V42.9716H831.882V45H824.433Z" fill="#3B4A90"/>
<rect x="1097" y="20" width="67" height="39" rx="12" fill="white" fill-opacity="0.9"/>
<path d="M1108.01 45V33.3636H1115.72V35.392H1110.47V38.1648H1115.2V40.1932H1110.47V45H1108.01ZM1119.83 33.3636V45H1117.37V33.3636H1119.83ZM1131.59 33.3636V45H1129.46L1124.4 37.6761H1124.32V45H1121.86V33.3636H1124.01L1129.04 40.6818H1129.14V33.3636H1131.59ZM1135.63 45H1132.99L1137.01 33.3636H1140.18L1144.19 45H1141.55L1138.64 36.0227H1138.55L1135.63 45ZM1135.46 40.4261H1141.69V42.3466H1135.46V40.4261ZM1145.59 45V33.3636H1148.05V42.9716H1153.04V45H1145.59Z" fill="#3B4A90"/>
<defs>
<pattern id="pattern0_15_2" patternContentUnits="objectBoundingBox" width="1" height="1">
<use xlink:href="#image0_15_2" transform="matrix(0.00131406 0 0 0.0016 -0.022339 -0.1376)"/>
</pattern>
</defs>
</svg>
